<svg xmlns="http://www.w3.org/2000/svg" xmlns:xlink="http://www.w3.org/1999/xlink" version="1.1" width="3170" height="1153" style="width: 3170px; height: 1153px; background: #ffffff" viewBox="0 0 3170 1153"><style id="v-3" type="text/css">        .joint-element .scalable * {            vector-effect: non-scaling-stroke;        }    </style><defs joint-selector="defs"><marker id="v-21252848929" orient="auto" overflow="visible" markerUnits="userSpaceOnUse"><path id="v-83" stroke="#444444" fill="#444444" transform="rotate(180)" d="M 20 -10 0 0 20 10 Z"></path></marker></defs><g joint-selector="layers"  transform="matrix(1,0,0,1,0,0)"><g  style="pointer-events: none;"></g><g ></g><g  style="user-select: none;"><!--z-index:1--><!--z-index:2--><!--z-index:3--><!--z-index:4--><!--z-index:5--><!--z-index:6--><!--z-index:7--><!--z-index:8--><!--z-index:9--><!--z-index:10--><!--z-index:11--><!--z-index:12--><g   id="j_14"  transform="translate(20,1109)"><g id="v-134"><text  id="v-135" font-size="24px" xml:space="preserve" y="0.8em" font-weight="normal" text-anchor="start" fill="#444444" pointer-events="none" display="block" font-family="Tahoma, Verdana, Helvetica, Arial"><tspan dy="0" >Sunday, July 12, 2026 at 9:38 PM Coordinated Universal Time</tspan></text></g></g><!--z-index:13--><g   id="j_13"  transform="translate(20,1063)"><g id="v-132"><text  id="v-133" font-size="36px" xml:space="preserve" y="0.8em" font-weight="normal" text-anchor="start" fill="#444444" pointer-events="none" display="block" font-family="Tahoma, Verdana, Helvetica, Arial"><tspan dy="0" >System Context View: Orchestrator (run-playbook)</tspan></text></g></g><!--z-index:14--><g   id="j_15"  transform="translate(200,460)" style=""><g  id="v-142" style="opacity: 1;"><rect  x="0" y="160" width="400" height="240" rx="70" id="v-144" stroke-width="2" pointer-events="visiblePainted" fill="#08427b" stroke="#073b6f" stroke-dasharray="" style="fill: rgb(8, 66, 123); stroke: rgb(7, 59, 111);"></rect><circle  cx="200" cy="88.88888888888889" r="88.88888888888889" id="v-143" stroke-width="2" pointer-events="visiblePainted" fill="#08427b" stroke="#073b6f" stroke-dasharray="" style="fill: rgb(8, 66, 123); stroke: rgb(7, 59, 111);"></circle><line  x1="80" y1="266.6666666666667" x2="80" y2="400" id="v-150" stroke="#073b6f" stroke-width="1" stroke-dasharray="" style="stroke: rgb(7, 59, 111);"></line><line  x1="320" y1="266.6666666666667" x2="320" y2="400" id="v-151" stroke="#073b6f" stroke-width="1" stroke-dasharray="" style="stroke: rgb(7, 59, 111);"></line><text  id="v-145" font-size="33.599999999999994px" xml:space="preserve" y="216.9" font-weight="bold" text-anchor="middle" pointer-events="visible" font-family="Tahoma, Verdana, Helvetica, Arial" fill="#ffffff" dominant-baseline="hanging" transform="matrix(1,0,0,1,200,0)" style="fill: rgb(255, 255, 255);"><tspan dy="0" >Human Operator</tspan></text><text  id="v-146" font-size="16.799999999999997px" xml:space="preserve" y="258.5" text-anchor="middle" font-family="Tahoma, Verdana, Helvetica, Arial" fill="#ffffff" dominant-baseline="hanging" transform="matrix(1,0,0,1,200,0)" style="display: block; fill: rgb(255, 255, 255);"><tspan dy="0" >[Person]</tspan></text><text  id="v-147" font-size="24px" xml:space="preserve" y="290.3" text-anchor="middle" font-family="Tahoma, Verdana, Helvetica, Arial" fill="#ffffff" dominant-baseline="hanging" transform="matrix(1,0,0,1,200,0)" style="display: block; fill: rgb(255, 255, 255);"><tspan dy="0" >Initiates playbook runs, handles</tspan><tspan dy="1.2em" x="0" >human gates</tspan></text><g  id="v-148" font-weight="normal" text-anchor="middle" color="#ffffff" transform="matrix(1,0,0,1,197.5,368)" display="none" style="fill: rgb(255, 255, 255);"><g ></g><g ></g><g ></g><g ></g></g><image  id="v-149"></image></g></g><!--z-index:15--><g   id="j_16"  transform="translate(940,510)" style=""><g  id="v-158" style="opacity: 1;"><rect  id="v-159" rx="20" ry="20" stroke-width="2" pointer-events="visiblePainted" fill="#1168bd" stroke="#0f5eaa" stroke-dasharray="" width="450" height="300" style="fill: rgb(17, 104, 189); stroke: rgb(15, 94, 170);"></rect><text  id="v-160" font-size="33.599999999999994px" xml:space="preserve" y="52.34" font-weight="bold" text-anchor="middle" pointer-events="visible" font-family="Tahoma, Verdana, Helvetica, Arial" fill="#ffffff" dominant-baseline="hanging" transform="matrix(1,0,0,1,225,0)" style="fill: rgb(255, 255, 255);"><tspan dy="0" >Orchestrator</tspan><tspan dy="1.2em" x="0" >(run-playbook)</tspan></text><text  id="v-161" font-size="16.799999999999997px" xml:space="preserve" y="134.26" text-anchor="middle" font-family="Tahoma, Verdana, Helvetica, Arial" fill="#ffffff" dominant-baseline="hanging" transform="matrix(1,0,0,1,225,0)" style="display: block; fill: rgb(255, 255, 255);"><tspan dy="0" >[Software System]</tspan></text><text  id="v-162" font-size="24px" xml:space="preserve" y="166.06" text-anchor="middle" font-family="Tahoma, Verdana, Helvetica, Arial" fill="#ffffff" dominant-baseline="hanging" transform="matrix(1,0,0,1,225,0)" style="display: block; fill: rgb(255, 255, 255);"><tspan dy="0" >Replaces the human operator</tspan><tspan dy="1.2em" x="0" >pressing enter between agent</tspan><tspan dy="1.2em" x="0" >sessions</tspan></text><g  id="v-163" color="#ffffff" transform="matrix(1,0,0,1,210,268)" display="none" style="fill: rgb(255, 255, 255);"><g  transform="translate(5 0)"><svg xmlns="http://www.w3.org/2000/svg" width="20" height="20" fill="currentColor" viewBox="0 0 16 16"><path fill-rule="evenodd" d="M6.5 12a5.5 5.5 0 1 0 0-11 5.5 5.5 0 0 0 0 11zM13 6.5a6.5 6.5 0 1 1-13 0 6.5 6.5 0 0 1 13 0z"></path><path d="M10.344 11.742c.03.04.062.078.098.115l3.85 3.85a1 1 0 0 0 1.415-1.414l-3.85-3.85a1.007 1.007 0 0 0-.115-.1 6.538 6.538 0 0 1-1.398 1.4z"></path><path fill-rule="evenodd" d="M6.5 3a.5.5 0 0 1 .5.5V6h2.5a.5.5 0 0 1 0 1H7v2.5a.5.5 0 0 1-1 0V7H3.5a.5.5 0 0 1 0-1H6V3.5a.5.5 0 0 1 .5-.5z"></path></svg></g><g ></g><g ></g><g ></g></g><image  id="v-164"></image></g></g><!--z-index:16--><g   id="j_17"  transform="translate(1730,160)" style=""><g  id="v-168" style="opacity: 1;"><rect  id="v-169" rx="20" ry="20" stroke-width="2" pointer-events="visiblePainted" fill="#1168bd" stroke="#0f5eaa" stroke-dasharray="" width="450" height="300" style="fill: rgb(17, 104, 189); stroke: rgb(15, 94, 170);"></rect><text  id="v-170" font-size="33.599999999999994px" xml:space="preserve" y="86.9" font-weight="bold" text-anchor="middle" pointer-events="visible" font-family="Tahoma, Verdana, Helvetica, Arial" fill="#ffffff" dominant-baseline="hanging" transform="matrix(1,0,0,1,225,0)" style="fill: rgb(255, 255, 255);"><tspan dy="0" >Factory Scripts</tspan></text><text  id="v-171" font-size="16.799999999999997px" xml:space="preserve" y="128.5" text-anchor="middle" font-family="Tahoma, Verdana, Helvetica, Arial" fill="#ffffff" dominant-baseline="hanging" transform="matrix(1,0,0,1,225,0)" style="display: block; fill: rgb(255, 255, 255);"><tspan dy="0" >[Software System]</tspan></text><text  id="v-172" font-size="24px" xml:space="preserve" y="160.3" text-anchor="middle" font-family="Tahoma, Verdana, Helvetica, Arial" fill="#ffffff" dominant-baseline="hanging" transform="matrix(1,0,0,1,225,0)" style="display: block; fill: rgb(255, 255, 255);"><tspan dy="0" >Deterministic flow-control</tspan><tspan dy="1.2em" x="0" >mechanisms</tspan></text><g  id="v-173" color="#ffffff" transform="matrix(1,0,0,1,222.5,268)" display="none" style="fill: rgb(255, 255, 255);"><g ></g><g ></g><g ></g><g ></g></g><image  id="v-174"></image></g></g><!--z-index:17--><g   id="j_18"  transform="translate(2520,598)" style=""><g  id="v-181" style="opacity: 1;"><rect  id="v-182" rx="20" ry="20" stroke-width="2" pointer-events="visiblePainted" fill="#1168bd" stroke="#0f5eaa" stroke-dasharray="" width="450" height="300" style="fill: rgb(17, 104, 189); stroke: rgb(15, 94, 170);"></rect><text  id="v-183" font-size="33.599999999999994px" xml:space="preserve" y="101.30000000000001" font-weight="bold" text-anchor="middle" pointer-events="visible" font-family="Tahoma, Verdana, Helvetica, Arial" fill="#ffffff" dominant-baseline="hanging" transform="matrix(1,0,0,1,225,0)" style="fill: rgb(255, 255, 255);"><tspan dy="0" >Playbook State Marker</tspan></text><text  id="v-184" font-size="16.799999999999997px" xml:space="preserve" y="142.9" text-anchor="middle" font-family="Tahoma, Verdana, Helvetica, Arial" fill="#ffffff" dominant-baseline="hanging" transform="matrix(1,0,0,1,225,0)" style="display: block; fill: rgb(255, 255, 255);"><tspan dy="0" >[Software System]</tspan></text><text  id="v-185" font-size="24px" xml:space="preserve" y="174.7" text-anchor="middle" font-family="Tahoma, Verdana, Helvetica, Arial" fill="#ffffff" dominant-baseline="hanging" transform="matrix(1,0,0,1,225,0)" style="display: block; fill: rgb(255, 255, 255);"><tspan dy="0" >.agent-factory/playbook-state.yml</tspan></text><g  id="v-186" color="#ffffff" transform="matrix(1,0,0,1,222.5,268)" display="none" style="fill: rgb(255, 255, 255);"><g ></g><g ></g><g ></g><g ></g></g><image  id="v-187"></image></g></g><!--z-index:18--><g   id="j_19"  transform="translate(1730,510)" style=""><g  id="v-191" style="opacity: 1;"><rect  id="v-192" rx="20" ry="20" stroke-width="2" pointer-events="visiblePainted" fill="#1168bd" stroke="#0f5eaa" stroke-dasharray="" width="450" height="300" style="fill: rgb(17, 104, 189); stroke: rgb(15, 94, 170);"></rect><text  id="v-193" font-size="33.599999999999994px" xml:space="preserve" y="101.30000000000001" font-weight="bold" text-anchor="middle" pointer-events="visible" font-family="Tahoma, Verdana, Helvetica, Arial" fill="#ffffff" dominant-baseline="hanging" transform="matrix(1,0,0,1,225,0)" style="fill: rgb(255, 255, 255);"><tspan dy="0" >FSM Definitions</tspan></text><text  id="v-194" font-size="16.799999999999997px" xml:space="preserve" y="142.9" text-anchor="middle" font-family="Tahoma, Verdana, Helvetica, Arial" fill="#ffffff" dominant-baseline="hanging" transform="matrix(1,0,0,1,225,0)" style="display: block; fill: rgb(255, 255, 255);"><tspan dy="0" >[Software System]</tspan></text><text  id="v-195" font-size="24px" xml:space="preserve" y="174.7" text-anchor="middle" font-family="Tahoma, Verdana, Helvetica, Arial" fill="#ffffff" dominant-baseline="hanging" transform="matrix(1,0,0,1,225,0)" style="display: block; fill: rgb(255, 255, 255);"><tspan dy="0" >factory/playbooks/*.fsm.yml</tspan></text><g  id="v-196" color="#ffffff" transform="matrix(1,0,0,1,222.5,268)" display="none" style="fill: rgb(255, 255, 255);"><g ></g><g ></g><g ></g><g ></g></g><image  id="v-197"></image></g></g><!--z-index:19--><g   id="j_20"  style="opacity: 1;"><path fill="none" cursor="pointer" stroke="transparent" stroke-linecap="round" joint-selector="wrapper" id="v-209" stroke-width="10" stroke-linejoin="round" d="M 600 660 L 940 660"></path><path fill="none" pointer-events="none" joint-selector="line" id="v-208" stroke="#444444" stroke-width="2" stroke-linejoin="round" stroke-dasharray="8 8" d="M 600 660 L 940 660" marker-end="url(#v-21252848929)"></path><g id="v-201" ><g id="v-202"  label-idx="0" cursor="move" transform="matrix(1,0,0,1,770,660)" style="cursor: default;"><rect joint-selector="rect" id="v-205" fill="#ffffff" rx="3" ry="3" x="-69.36310577392578" y="-29.489065170288086" width="139.0889892578125" height="56.04219436645508" pointer-events="none"  style="display: block;"></rect><text joint-selector="text" id="v-204" font-size="24px" xml:space="preserve" fill="#444444" text-anchor="middle" pointer-events="none" font-family="Tahoma, Verdana, Helvetica, Arial" font-weight="normal"  style="display: block;"><tspan dy="-0.3em" >invokes</tspan><tspan dy="1.2em" x="0" >run-playbook</tspan></text></g><g id="v-203"  label-idx="1" cursor="move" transform="matrix(1,0,0,1,760,686.4000244140625)" style="cursor: default;"><rect joint-selector="rect" id="v-207" fill="#ffffff" rx="3" ry="3" x="0" y="0" width="0" height="0"  display="none"></rect><text joint-selector="text" id="v-206" fill="#000000" font-size="14" text-anchor="middle" text-vertical-anchor="middle" pointer-events="none"></text></g></g></g><!--z-index:20--><g   id="j_21"  style="opacity: 1;"><path fill="none" cursor="pointer" stroke="transparent" stroke-linecap="round" joint-selector="wrapper" id="v-221" stroke-width="10" stroke-linejoin="round" d="M 1334.29 510 L 1553 317 C 1557.6666666666665 312.3333333333333 1563.3333333333333 310 1570 310 L 1730 310"></path><path fill="none" pointer-events="none" joint-selector="line" id="v-220" stroke="#444444" stroke-width="2" stroke-linejoin="round" stroke-dasharray="8 8" d="M 1334.29 510 L 1553 317 C 1557.6666666666665 312.3333333333333 1563.3333333333333 310 1570 310 L 1730 310" marker-end="url(#v-21252848929)"></path><g id="v-213" ><g id="v-214"  label-idx="0" cursor="move" transform="matrix(1,0,0,1,1560.584228515625,311.81903076171875)" style="cursor: default;"><rect joint-selector="rect" id="v-217" fill="#ffffff" rx="3" ry="3" x="-96.02484893798828" y="-29.489065170288086" width="192.77963256835938" height="56.04219436645508" pointer-events="none"  style="display: block;"></rect><text joint-selector="text" id="v-216" font-size="24px" xml:space="preserve" fill="#444444" text-anchor="middle" pointer-events="none" font-family="Tahoma, Verdana, Helvetica, Arial" font-weight="normal"  style="display: block;"><tspan dy="-0.3em" >calls (check gate /</tspan><tspan dy="1.2em" x="0" >advance marker)</tspan></text></g><g id="v-215"  label-idx="1" cursor="move" transform="matrix(1,0,0,1,1550.584228515625,338.2190246582031)" style="cursor: default;"><rect joint-selector="rect" id="v-219" fill="#ffffff" rx="3" ry="3" x="0" y="0" width="0" height="0"  display="none"></rect><text joint-selector="text" id="v-218" fill="#000000" font-size="14" text-anchor="middle" text-vertical-anchor="middle" pointer-events="none"></text></g></g></g><!--z-index:21--><g   id="j_22"  style="opacity: 1;"><path fill="none" cursor="pointer" stroke="transparent" stroke-linecap="round" joint-selector="wrapper" id="v-233" stroke-width="10" stroke-linejoin="round" d="M 2180 310 L 2340 310 C 2346.6666666666665 310 2352.333333333333 312.3333333333333 2357 317 L 2609.73 598"></path><path fill="none" pointer-events="none" joint-selector="line" id="v-232" stroke="#444444" stroke-width="2" stroke-linejoin="round" stroke-dasharray="8 8" d="M 2180 310 L 2340 310 C 2346.6666666666665 310 2352.333333333333 312.3333333333333 2357 317 L 2609.73 598" marker-end="url(#v-21252848929)"></path><g id="v-225" ><g id="v-226"  label-idx="0" cursor="move" transform="matrix(1,0,0,1,2349.216796875,311.7363586425781)" style="cursor: default;"><rect joint-selector="rect" id="v-229" fill="#ffffff" rx="3" ry="3" x="-71.33661651611328" y="-15.089064598083496" width="143.04855346679688" height="27.242189407348633" pointer-events="none"  style="display: block;"></rect><text joint-selector="text" id="v-228" font-size="24px" xml:space="preserve" fill="#444444" text-anchor="middle" pointer-events="none" font-family="Tahoma, Verdana, Helvetica, Arial" font-weight="normal"  style="display: block;"><tspan dy="0.3em" >reads / writes</tspan></text></g><g id="v-227"  label-idx="1" cursor="move" transform="matrix(1,0,0,1,2339.216796875,323.7363586425781)" style="cursor: default;"><rect joint-selector="rect" id="v-231" fill="#ffffff" rx="3" ry="3" x="0" y="0" width="0" height="0"  display="none"></rect><text joint-selector="text" id="v-230" fill="#000000" font-size="14" text-anchor="middle" text-vertical-anchor="middle" pointer-events="none"></text></g></g></g><!--z-index:22--><g   id="j_23"  style="opacity: 1;"><path fill="none" cursor="pointer" stroke="transparent" stroke-linecap="round" joint-selector="wrapper" id="v-245" stroke-width="10" stroke-linejoin="round" d="M 1390 788.96 L 1551 881 C 1557 884.5999999999999 1563.3333333333333 886.2666666666667 1570 886 L 2340 886 C 2346.6666666666665 886.2666666666667 2353 885.2666666666667 2359 883 L 2520 826.84"></path><path fill="none" pointer-events="none" joint-selector="line" id="v-244" stroke="#444444" stroke-width="2" stroke-linejoin="round" stroke-dasharray="8 8" d="M 1390 788.96 L 1551 881 C 1557 884.5999999999999 1563.3333333333333 886.2666666666667 1570 886 L 2340 886 C 2346.6666666666665 886.2666666666667 2353 885.2666666666667 2359 883 L 2520 826.84" marker-end="url(#v-21252848929)"></path><g id="v-237" ><g id="v-238"  label-idx="0" cursor="move" transform="matrix(1,0,0,1,1955.216552734375,886)" style="cursor: default;"><rect joint-selector="rect" id="v-241" fill="#ffffff" rx="3" ry="3" x="-67.35089874267578" y="-29.489065170288086" width="136.6007080078125" height="56.04219436645508" pointer-events="none"  style="display: block;"></rect><text joint-selector="text" id="v-240" font-size="24px" xml:space="preserve" fill="#444444" text-anchor="middle" pointer-events="none" font-family="Tahoma, Verdana, Helvetica, Arial" font-weight="normal"  style="display: block;"><tspan dy="-0.3em" >reads (never</tspan><tspan dy="1.2em" x="0" >writes)</tspan></text></g><g id="v-239"  label-idx="1" cursor="move" transform="matrix(1,0,0,1,1945.216552734375,912.4000244140625)" style="cursor: default;"><rect joint-selector="rect" id="v-243" fill="#ffffff" rx="3" ry="3" x="0" y="0" width="0" height="0"  display="none"></rect><text joint-selector="text" id="v-242" fill="#000000" font-size="14" text-anchor="middle" text-vertical-anchor="middle" pointer-events="none"></text></g></g></g><!--z-index:23--><g   id="j_24"  style="opacity: 1;"><path fill="none" cursor="pointer" stroke="transparent" stroke-linecap="round" joint-selector="wrapper" id="v-257" stroke-width="10" stroke-linejoin="round" d="M 1390 660 L 1730 660"></path><path fill="none" pointer-events="none" joint-selector="line" id="v-256" stroke="#444444" stroke-width="2" stroke-linejoin="round" stroke-dasharray="8 8" d="M 1390 660 L 1730 660" marker-end="url(#v-21252848929)"></path><g id="v-249" ><g id="v-250"  label-idx="0" cursor="move" transform="matrix(1,0,0,1,1560,660)" style="cursor: default;"><rect joint-selector="rect" id="v-253" fill="#ffffff" rx="3" ry="3" x="-84.68683624267578" y="-43.88906478881836" width="169.37367248535156" height="84.84219360351562" pointer-events="none"  style="display: block;"></rect><text joint-selector="text" id="v-252" font-size="24px" xml:space="preserve" fill="#444444" text-anchor="middle" pointer-events="none" font-family="Tahoma, Verdana, Helvetica, Arial" font-weight="normal"  style="display: block;"><tspan dy="-0.8999999999999999em" >reads (agent</tspan><tspan dy="1.2em" x="0" >resolution, state</tspan><tspan dy="1.2em" x="0" >detection)</tspan></text></g><g id="v-251"  label-idx="1" cursor="move" transform="matrix(1,0,0,1,1550,700.7999877929688)" style="cursor: default;"><rect joint-selector="rect" id="v-255" fill="#ffffff" rx="3" ry="3" x="0" y="0" width="0" height="0"  display="none"></rect><text joint-selector="text" id="v-254" fill="#000000" font-size="14" text-anchor="middle" text-vertical-anchor="middle" pointer-events="none"></text></g></g></g><!--z-index:24--></g><g  style="user-select: none;"></g><g ></g><g  display="none"></g></g></svg>