<svg xmlns="http://www.w3.org/2000/svg" xmlns:xlink="http://www.w3.org/1999/xlink" version="1.1" width="1050" height="7008" style="width: 1050px; height: 7008px; background: #ffffff" viewBox="0 0 1050 7008"><style id="v-3" type="text/css">        .joint-element .scalable * {            vector-effect: non-scaling-stroke;        }    </style><defs joint-selector="defs"></defs><g joint-selector="layers"  transform="matrix(1,0,0,1,0,0)"><g  style="pointer-events: none;"></g><g ></g><g  style="user-select: none;"><!--z-index:-2--><!--z-index:-1--><!--z-index:0--><!--z-index:1--><!--z-index:2--><!--z-index:3--><!--z-index:4--><!--z-index:5--><!--z-index:6--><!--z-index:7--><!--z-index:8--><!--z-index:9--><!--z-index:10--><!--z-index:11--><!--z-index:12--><!--z-index:13--><!--z-index:14--><!--z-index:15--><!--z-index:16--><!--z-index:17--><!--z-index:18--><!--z-index:19--><!--z-index:20--><g   id="j_45"  transform="translate(199,142)" style=""><g  id="v-459" style="opacity: 1;"><rect  id="v-460" width="650" height="6608" rx="10" ry="10" stroke-width="2" pointer-events="none" stroke="#444444" stroke-dasharray="" fill="#ffffff" opacity="1" style="stroke: rgb(68, 68, 68);"></rect><text  id="v-461" font-size="33.599999999999994px" xml:space="preserve" y="6569" font-weight="bold" text-anchor="start" pointer-events="visible" font-family="Tahoma, Verdana, Helvetica, Arial" fill="#444444" transform="matrix(1,0,0,1,15,0)" style="fill: rgb(68, 68, 68);"><tspan dy="0" >Operator Workstation</tspan></text><text  id="v-462" font-size="16.799999999999997px" xml:space="preserve" y="6593" font-weight="normal" text-anchor="start" pointer-events="visible" font-family="Tahoma, Verdana, Helvetica, Arial" fill="#444444" transform="matrix(1,0,0,1,15,0)" style="display: block; fill: rgb(68, 68, 68);"><tspan dy="0" >[Deployment Node: Linux/macOS]</tspan></text><text  id="v-463" font-size="40px" xml:space="preserve" display="none" y="6593" font-weight="normal" fill="#444444" text-anchor="end" pointer-events="visible" font-family="Tahoma, Verdana, Helvetica, Arial" transform="matrix(1,0,0,1,635,0)"><tspan dy="0" style="fill-opacity: 0; stroke-opacity: 0;" >-</tspan></text><image  id="v-464" pointer-events="visible"></image></g></g><!--z-index:21--><g   id="j_46"  transform="translate(249,192)" style=""><g  id="v-465" style="opacity: 1;"><rect  id="v-466" width="550" height="6429" rx="10" ry="10" stroke-width="2" pointer-events="none" stroke="#444444" stroke-dasharray="" fill="#ffffff" opacity="1" style="stroke: rgb(68, 68, 68);"></rect><text  id="v-467" font-size="33.599999999999994px" xml:space="preserve" y="6390" font-weight="bold" text-anchor="start" pointer-events="visible" font-family="Tahoma, Verdana, Helvetica, Arial" fill="#444444" transform="matrix(1,0,0,1,15,0)" style="fill: rgb(68, 68, 68);"><tspan dy="0" >Factory Project</tspan></text><text  id="v-468" font-size="16.799999999999997px" xml:space="preserve" y="6414" font-weight="normal" text-anchor="start" pointer-events="visible" font-family="Tahoma, Verdana, Helvetica, Arial" fill="#444444" transform="matrix(1,0,0,1,15,0)" style="display: block; fill: rgb(68, 68, 68);"><tspan dy="0" >[Deployment Node: Filesystem/processes]</tspan></text><text  id="v-469" font-size="40px" xml:space="preserve" display="none" y="6414" font-weight="normal" fill="#444444" text-anchor="end" pointer-events="visible" font-family="Tahoma, Verdana, Helvetica, Arial" transform="matrix(1,0,0,1,535,0)"><tspan dy="0" style="fill-opacity: 0; stroke-opacity: 0;" >-</tspan></text><image  id="v-470" pointer-events="visible"></image></g></g><!--z-index:22--><g   id="j_27"  transform="translate(299,242)" style=""><g  id="v-248" style="opacity: 1;"><rect  id="v-249" rx="20" ry="20" stroke-width="2" pointer-events="visiblePainted" fill="#438dd5" stroke="#3c7fc0" stroke-dasharray="" width="450" height="300" style="fill: rgb(67, 141, 213); stroke: rgb(60, 127, 192);"></rect><text  id="v-250" font-size="33.599999999999994px" xml:space="preserve" y="19.22" font-weight="bold" text-anchor="middle" pointer-events="visible" font-family="Tahoma, Verdana, Helvetica, Arial" fill="#ffffff" dominant-baseline="hanging" transform="matrix(1,0,0,1,225,0)" style="fill: rgb(255, 255, 255);"><tspan dy="0" >Cycle Engine</tspan></text><text  id="v-251" font-size="16.799999999999997px" xml:space="preserve" y="60.81999999999999" text-anchor="middle" font-family="Tahoma, Verdana, Helvetica, Arial" fill="#ffffff" dominant-baseline="hanging" transform="matrix(1,0,0,1,225,0)" style="display: block; fill: rgb(255, 255, 255);"><tspan dy="0" >from Factory Flow Control</tspan><tspan dy="1.2em" x="0" >[Container: Python 3.10+]</tspan></text><text  id="v-252" font-size="24px" xml:space="preserve" y="112.77999999999999" text-anchor="middle" font-family="Tahoma, Verdana, Helvetica, Arial" fill="#ffffff" dominant-baseline="hanging" transform="matrix(1,0,0,1,225,0)" style="display: block; fill: rgb(255, 255, 255);"><tspan dy="0" >Loads the delivery model, evaluates</tspan><tspan dy="1.2em" x="0" >artifact readiness, produces route</tspan><tspan dy="1.2em" x="0" >recommendations, checks</tspan><tspan dy="1.2em" x="0" >delegation grants, and enforces</tspan><tspan dy="1.2em" x="0" >retry limits; returns immutable</tspan><tspan dy="1.2em" x="0" >decisions without writing state</tspan></text><g  id="v-253" color="#ffffff" transform="matrix(1,0,0,1,210,268)" display="none" style="fill: rgb(255, 255, 255);"><g  transform="translate(5 0)"><svg xmlns="http://www.w3.org/2000/svg" width="20" height="20" fill="currentColor" viewBox="0 0 16 16"><path fill-rule="evenodd" d="M6.5 12a5.5 5.5 0 1 0 0-11 5.5 5.5 0 0 0 0 11zM13 6.5a6.5 6.5 0 1 1-13 0 6.5 6.5 0 0 1 13 0z"></path><path d="M10.344 11.742c.03.04.062.078.098.115l3.85 3.85a1 1 0 0 0 1.415-1.414l-3.85-3.85a1.007 1.007 0 0 0-.115-.1 6.538 6.538 0 0 1-1.398 1.4z"></path><path fill-rule="evenodd" d="M6.5 3a.5.5 0 0 1 .5.5V6h2.5a.5.5 0 0 1 0 1H7v2.5a.5.5 0 0 1-1 0V7H3.5a.5.5 0 0 1 0-1H6V3.5a.5.5 0 0 1 .5-.5z"></path></svg></g><g ></g><g ></g><g ></g></g><image  id="v-254"></image></g></g><!--z-index:23--><g   id="j_28"  transform="translate(299,592)" style=""><g  id="v-258" style="opacity: 1;"><rect  id="v-259" rx="20" ry="20" stroke-width="2" pointer-events="visiblePainted" fill="#438dd5" stroke="#3c7fc0" stroke-dasharray="" width="450" height="300" style="fill: rgb(67, 141, 213); stroke: rgb(60, 127, 192);"></rect><text  id="v-260" font-size="33.599999999999994px" xml:space="preserve" y="48.02000000000001" font-weight="bold" text-anchor="middle" pointer-events="visible" font-family="Tahoma, Verdana, Helvetica, Arial" fill="#ffffff" dominant-baseline="hanging" transform="matrix(1,0,0,1,225,0)" style="fill: rgb(255, 255, 255);"><tspan dy="0" >State Adapter</tspan></text><text  id="v-261" font-size="16.799999999999997px" xml:space="preserve" y="89.62" text-anchor="middle" font-family="Tahoma, Verdana, Helvetica, Arial" fill="#ffffff" dominant-baseline="hanging" transform="matrix(1,0,0,1,225,0)" style="display: block; fill: rgb(255, 255, 255);"><tspan dy="0" >from Factory Flow Control</tspan><tspan dy="1.2em" x="0" >[Container: Python]</tspan></text><text  id="v-262" font-size="24px" xml:space="preserve" y="141.57999999999998" text-anchor="middle" font-family="Tahoma, Verdana, Helvetica, Arial" fill="#ffffff" dominant-baseline="hanging" transform="matrix(1,0,0,1,225,0)" style="display: block; fill: rgb(255, 255, 255);"><tspan dy="0" >Thin command adapters that</tspan><tspan dy="1.2em" x="0" >acquire locks, call the engine for</tspan><tspan dy="1.2em" x="0" >decisions, write cycle state, and</tspan><tspan dy="1.2em" x="0" >present recommendations</tspan></text><g  id="v-263" color="#ffffff" transform="matrix(1,0,0,1,210,268)" display="none" style="fill: rgb(255, 255, 255);"><g  transform="translate(5 0)"><svg xmlns="http://www.w3.org/2000/svg" width="20" height="20" fill="currentColor" viewBox="0 0 16 16"><path fill-rule="evenodd" d="M6.5 12a5.5 5.5 0 1 0 0-11 5.5 5.5 0 0 0 0 11zM13 6.5a6.5 6.5 0 1 1-13 0 6.5 6.5 0 0 1 13 0z"></path><path d="M10.344 11.742c.03.04.062.078.098.115l3.85 3.85a1 1 0 0 0 1.415-1.414l-3.85-3.85a1.007 1.007 0 0 0-.115-.1 6.538 6.538 0 0 1-1.398 1.4z"></path><path fill-rule="evenodd" d="M6.5 3a.5.5 0 0 1 .5.5V6h2.5a.5.5 0 0 1 0 1H7v2.5a.5.5 0 0 1-1 0V7H3.5a.5.5 0 0 1 0-1H6V3.5a.5.5 0 0 1 .5-.5z"></path></svg></g><g ></g><g ></g><g ></g></g><image  id="v-264"></image></g></g><!--z-index:24--><g   id="j_29"  transform="translate(299,942)" style=""><g  id="v-268" style="opacity: 1;"><rect  id="v-269" rx="20" ry="20" stroke-width="2" pointer-events="visiblePainted" fill="#438dd5" stroke="#3c7fc0" stroke-dasharray="" width="450" height="300" style="fill: rgb(67, 141, 213); stroke: rgb(60, 127, 192);"></rect><text  id="v-270" font-size="33.599999999999994px" xml:space="preserve" y="33.620000000000005" font-weight="bold" text-anchor="middle" pointer-events="visible" font-family="Tahoma, Verdana, Helvetica, Arial" fill="#ffffff" dominant-baseline="hanging" transform="matrix(1,0,0,1,225,0)" style="fill: rgb(255, 255, 255);"><tspan dy="0" >Validator</tspan></text><text  id="v-271" font-size="16.799999999999997px" xml:space="preserve" y="75.22" text-anchor="middle" font-family="Tahoma, Verdana, Helvetica, Arial" fill="#ffffff" dominant-baseline="hanging" transform="matrix(1,0,0,1,225,0)" style="display: block; fill: rgb(255, 255, 255);"><tspan dy="0" >from Factory Flow Control</tspan><tspan dy="1.2em" x="0" >[Container: Bash/Python]</tspan></text><text  id="v-272" font-size="24px" xml:space="preserve" y="127.17999999999999" text-anchor="middle" font-family="Tahoma, Verdana, Helvetica, Arial" fill="#ffffff" dominant-baseline="hanging" transform="matrix(1,0,0,1,225,0)" style="display: block; fill: rgb(255, 255, 255);"><tspan dy="0" >Enforces gates, permissions,</tspan><tspan dy="1.2em" x="0" >cycle-model integrity,</tspan><tspan dy="1.2em" x="0" >project-declared test gate presence,</tspan><tspan dy="1.2em" x="0" >agent-context structure, and</tspan><tspan dy="1.2em" x="0" >semantic quality checks</tspan></text><g  id="v-273" color="#ffffff" transform="matrix(1,0,0,1,210,268)" display="none" style="fill: rgb(255, 255, 255);"><g  transform="translate(5 0)"><svg xmlns="http://www.w3.org/2000/svg" width="20" height="20" fill="currentColor" viewBox="0 0 16 16"><path fill-rule="evenodd" d="M6.5 12a5.5 5.5 0 1 0 0-11 5.5 5.5 0 0 0 0 11zM13 6.5a6.5 6.5 0 1 1-13 0 6.5 6.5 0 0 1 13 0z"></path><path d="M10.344 11.742c.03.04.062.078.098.115l3.85 3.85a1 1 0 0 0 1.415-1.414l-3.85-3.85a1.007 1.007 0 0 0-.115-.1 6.538 6.538 0 0 1-1.398 1.4z"></path><path fill-rule="evenodd" d="M6.5 3a.5.5 0 0 1 .5.5V6h2.5a.5.5 0 0 1 0 1H7v2.5a.5.5 0 0 1-1 0V7H3.5a.5.5 0 0 1 0-1H6V3.5a.5.5 0 0 1 .5-.5z"></path></svg></g><g ></g><g ></g><g ></g></g><image  id="v-274"></image></g></g><!--z-index:25--><g   id="j_30"  transform="translate(299,1292)" style=""><g  id="v-278" style="opacity: 1;"><rect  id="v-279" rx="20" ry="20" stroke-width="2" pointer-events="visiblePainted" fill="#438dd5" stroke="#3c7fc0" stroke-dasharray="" width="450" height="300" style="fill: rgb(67, 141, 213); stroke: rgb(60, 127, 192);"></rect><text  id="v-280" font-size="33.599999999999994px" xml:space="preserve" y="76.82000000000001" font-weight="bold" text-anchor="middle" pointer-events="visible" font-family="Tahoma, Verdana, Helvetica, Arial" fill="#ffffff" dominant-baseline="hanging" transform="matrix(1,0,0,1,225,0)" style="fill: rgb(255, 255, 255);"><tspan dy="0" >Dispatcher</tspan></text><text  id="v-281" font-size="16.799999999999997px" xml:space="preserve" y="118.42" text-anchor="middle" font-family="Tahoma, Verdana, Helvetica, Arial" fill="#ffffff" dominant-baseline="hanging" transform="matrix(1,0,0,1,225,0)" style="display: block; fill: rgb(255, 255, 255);"><tspan dy="0" >from Factory Flow Control</tspan><tspan dy="1.2em" x="0" >[Container: Bash/Python]</tspan></text><text  id="v-282" font-size="24px" xml:space="preserve" y="170.38" text-anchor="middle" font-family="Tahoma, Verdana, Helvetica, Arial" fill="#ffffff" dominant-baseline="hanging" transform="matrix(1,0,0,1,225,0)" style="display: block; fill: rgb(255, 255, 255);"><tspan dy="0" >Resolves agents/models and</tspan><tspan dy="1.2em" x="0" >spawns CLI sessions</tspan></text><g  id="v-283" color="#ffffff" transform="matrix(1,0,0,1,222.5,268)" display="none" style="fill: rgb(255, 255, 255);"><g ></g><g ></g><g ></g><g ></g></g><image  id="v-284"></image></g></g><!--z-index:26--><g   id="j_31"  transform="translate(299,1642)" style=""><g  id="v-291" style="opacity: 1;"><rect  id="v-292" rx="20" ry="20" stroke-width="2" pointer-events="visiblePainted" fill="#438dd5" stroke="#3c7fc0" stroke-dasharray="" width="450" height="300" style="fill: rgb(67, 141, 213); stroke: rgb(60, 127, 192);"></rect><text  id="v-293" font-size="33.599999999999994px" xml:space="preserve" y="48.02000000000001" font-weight="bold" text-anchor="middle" pointer-events="visible" font-family="Tahoma, Verdana, Helvetica, Arial" fill="#ffffff" dominant-baseline="hanging" transform="matrix(1,0,0,1,225,0)" style="fill: rgb(255, 255, 255);"><tspan dy="0" >Usage Capture</tspan></text><text  id="v-294" font-size="16.799999999999997px" xml:space="preserve" y="89.62" text-anchor="middle" font-family="Tahoma, Verdana, Helvetica, Arial" fill="#ffffff" dominant-baseline="hanging" transform="matrix(1,0,0,1,225,0)" style="display: block; fill: rgb(255, 255, 255);"><tspan dy="0" >from Factory Flow Control</tspan><tspan dy="1.2em" x="0" >[Container: Python/Shell/TypeScript]</tspan></text><text  id="v-295" font-size="24px" xml:space="preserve" y="141.57999999999998" text-anchor="middle" font-family="Tahoma, Verdana, Helvetica, Arial" fill="#ffffff" dominant-baseline="hanging" transform="matrix(1,0,0,1,225,0)" style="display: block; fill: rgb(255, 255, 255);"><tspan dy="0" >Normalizes CLI-native transcripts</tspan><tspan dy="1.2em" x="0" >and appends versioned usage</tspan><tspan dy="1.2em" x="0" >records with optional workstream</tspan><tspan dy="1.2em" x="0" >and cycle context</tspan></text><g  id="v-296" color="#ffffff" transform="matrix(1,0,0,1,222.5,268)" display="none" style="fill: rgb(255, 255, 255);"><g ></g><g ></g><g ></g><g ></g></g><image  id="v-297"></image></g></g><!--z-index:27--><g   id="j_32"  transform="translate(299,1992)" style=""><g  id="v-301" style="opacity: 1;"><rect  id="v-302" rx="20" ry="20" stroke-width="2" pointer-events="visiblePainted" fill="#438dd5" stroke="#3c7fc0" stroke-dasharray="" width="450" height="300" style="fill: rgb(67, 141, 213); stroke: rgb(60, 127, 192);"></rect><text  id="v-303" font-size="33.599999999999994px" xml:space="preserve" y="76.82000000000001" font-weight="bold" text-anchor="middle" pointer-events="visible" font-family="Tahoma, Verdana, Helvetica, Arial" fill="#ffffff" dominant-baseline="hanging" transform="matrix(1,0,0,1,225,0)" style="fill: rgb(255, 255, 255);"><tspan dy="0" >Distribution</tspan></text><text  id="v-304" font-size="16.799999999999997px" xml:space="preserve" y="118.42" text-anchor="middle" font-family="Tahoma, Verdana, Helvetica, Arial" fill="#ffffff" dominant-baseline="hanging" transform="matrix(1,0,0,1,225,0)" style="display: block; fill: rgb(255, 255, 255);"><tspan dy="0" >from Factory Flow Control</tspan><tspan dy="1.2em" x="0" >[Container: Bash/Python]</tspan></text><text  id="v-305" font-size="24px" xml:space="preserve" y="170.38" text-anchor="middle" font-family="Tahoma, Verdana, Helvetica, Arial" fill="#ffffff" dominant-baseline="hanging" transform="matrix(1,0,0,1,225,0)" style="display: block; fill: rgb(255, 255, 255);"><tspan dy="0" >Installs, updates, removes, and</tspan><tspan dy="1.2em" x="0" >reports opt-in Factory components</tspan></text><g  id="v-306" color="#ffffff" transform="matrix(1,0,0,1,222.5,268)" display="none" style="fill: rgb(255, 255, 255);"><g ></g><g ></g><g ></g><g ></g></g><image  id="v-307"></image></g></g><!--z-index:28--><g   id="j_33"  transform="translate(299,2342)" style=""><g  id="v-311" style="opacity: 1;"><path  d="M 0,30 a 225,30 0,0,0 450 0 a 225,30 0,0,0 -450 0 l 0,240 a 225,30 0,0,0 450 0 l 0,-240" id="v-312" stroke-width="2" pointer-events="visiblePainted" fill="#438dd5" stroke="#3c7fc0" stroke-dasharray="" style="fill: rgb(67, 141, 213); stroke: rgb(60, 127, 192);"></path><rect  id="v-313" stroke-width="0" pointer-events="visiblePainted" fill="none" stroke="none" width="450" height="270" x="0" y="30"></rect><text  id="v-314" font-size="33.599999999999994px" xml:space="preserve" y="48.620000000000005" font-weight="bold" text-anchor="middle" pointer-events="visible" font-family="Tahoma, Verdana, Helvetica, Arial" fill="#ffffff" dominant-baseline="hanging" transform="matrix(1,0,0,1,225,0)" style="fill: rgb(255, 255, 255);"><tspan dy="0" >Delivery Model</tspan></text><text  id="v-315" font-size="16.799999999999997px" xml:space="preserve" y="90.22" text-anchor="middle" font-family="Tahoma, Verdana, Helvetica, Arial" fill="#ffffff" dominant-baseline="hanging" transform="matrix(1,0,0,1,225,0)" style="display: block; fill: rgb(255, 255, 255);"><tspan dy="0" >from Factory Flow Control</tspan><tspan dy="1.2em" x="0" >[Container: YAML file]</tspan></text><text  id="v-316" font-size="24px" xml:space="preserve" y="142.18" text-anchor="middle" font-family="Tahoma, Verdana, Helvetica, Arial" fill="#ffffff" dominant-baseline="hanging" transform="matrix(1,0,0,1,225,0)" style="display: block; fill: rgb(255, 255, 255);"><tspan dy="0" >Declarative YAML cycle graph with</tspan><tspan dy="1.2em" x="0" >five delivery cycles, terminal DONE</tspan><tspan dy="1.2em" x="0" >node, artifact declarations, trusted</tspan><tspan dy="1.2em" x="0" >validator references, and every</tspan><tspan dy="1.2em" x="0" >declared route</tspan></text><g  id="v-317" font-weight="normal" text-anchor="middle" color="#ffffff" transform="matrix(1,0,0,1,222.5,268)" display="none" style="fill: rgb(255, 255, 255);"><g ></g><g ></g><g ></g><g ></g></g><image  id="v-318"></image></g></g><!--z-index:29--><g   id="j_34"  transform="translate(299,2692)" style=""><g  id="v-322" style="opacity: 1;"><path  d="M 0,30 a 225,30 0,0,0 450 0 a 225,30 0,0,0 -450 0 l 0,240 a 225,30 0,0,0 450 0 l 0,-240" id="v-323" stroke-width="2" pointer-events="visiblePainted" fill="#438dd5" stroke="#3c7fc0" stroke-dasharray="" style="fill: rgb(67, 141, 213); stroke: rgb(60, 127, 192);"></path><rect  id="v-324" stroke-width="0" pointer-events="visiblePainted" fill="none" stroke="none" width="450" height="270" x="0" y="30"></rect><text  id="v-325" font-size="33.599999999999994px" xml:space="preserve" y="77.42000000000002" font-weight="bold" text-anchor="middle" pointer-events="visible" font-family="Tahoma, Verdana, Helvetica, Arial" fill="#ffffff" dominant-baseline="hanging" transform="matrix(1,0,0,1,225,0)" style="fill: rgb(255, 255, 255);"><tspan dy="0" >Cycle Schemas</tspan></text><text  id="v-326" font-size="16.799999999999997px" xml:space="preserve" y="119.02000000000001" text-anchor="middle" font-family="Tahoma, Verdana, Helvetica, Arial" fill="#ffffff" dominant-baseline="hanging" transform="matrix(1,0,0,1,225,0)" style="display: block; fill: rgb(255, 255, 255);"><tspan dy="0" >from Factory Flow Control</tspan><tspan dy="1.2em" x="0" >[Container: JSON Schema files]</tspan></text><text  id="v-327" font-size="24px" xml:space="preserve" y="170.98000000000002" text-anchor="middle" font-family="Tahoma, Verdana, Helvetica, Arial" fill="#ffffff" dominant-baseline="hanging" transform="matrix(1,0,0,1,225,0)" style="display: block; fill: rgb(255, 255, 255);"><tspan dy="0" >JSON Schema Draft 2020-12</tspan><tspan dy="1.2em" x="0" >definitions for cycle-model-v1 and</tspan><tspan dy="1.2em" x="0" >cycle-state-v1 validation</tspan></text><g  id="v-328" font-weight="normal" text-anchor="middle" color="#ffffff" transform="matrix(1,0,0,1,222.5,268)" display="none" style="fill: rgb(255, 255, 255);"><g ></g><g ></g><g ></g><g ></g></g><image  id="v-329"></image></g></g><!--z-index:30--><g   id="j_35"  transform="translate(299,3042)" style=""><g  id="v-336" style="opacity: 1;"><path  d="M 0,30 a 225,30 0,0,0 450 0 a 225,30 0,0,0 -450 0 l 0,240 a 225,30 0,0,0 450 0 l 0,-240" id="v-337" stroke-width="2" pointer-events="visiblePainted" fill="#438dd5" stroke="#3c7fc0" stroke-dasharray="" style="fill: rgb(67, 141, 213); stroke: rgb(60, 127, 192);"></path><rect  id="v-338" stroke-width="0" pointer-events="visiblePainted" fill="none" stroke="none" width="450" height="270" x="0" y="30"></rect><text  id="v-339" font-size="33.599999999999994px" xml:space="preserve" y="34.22" font-weight="bold" text-anchor="middle" pointer-events="visible" font-family="Tahoma, Verdana, Helvetica, Arial" fill="#ffffff" dominant-baseline="hanging" transform="matrix(1,0,0,1,225,0)" style="fill: rgb(255, 255, 255);"><tspan dy="0" >Cycle State Files</tspan></text><text  id="v-340" font-size="16.799999999999997px" xml:space="preserve" y="75.82" text-anchor="middle" font-family="Tahoma, Verdana, Helvetica, Arial" fill="#ffffff" dominant-baseline="hanging" transform="matrix(1,0,0,1,225,0)" style="display: block; fill: rgb(255, 255, 255);"><tspan dy="0" >from Factory Flow Control</tspan><tspan dy="1.2em" x="0" >[Container: YAML files]</tspan></text><text  id="v-341" font-size="24px" xml:space="preserve" y="127.77999999999999" text-anchor="middle" font-family="Tahoma, Verdana, Helvetica, Arial" fill="#ffffff" dominant-baseline="hanging" transform="matrix(1,0,0,1,225,0)" style="display: block; fill: rgb(255, 255, 255);"><tspan dy="0" >One YAML workstream state file per</tspan><tspan dy="1.2em" x="0" >active workstream under</tspan><tspan dy="1.2em" x="0" >.current-work/cycles/; each tracks</tspan><tspan dy="1.2em" x="0" >cycle, attempt, revision, work</tspan><tspan dy="1.2em" x="0" >references, and optional delegation</tspan><tspan dy="1.2em" x="0" >grant</tspan></text><g  id="v-342" font-weight="normal" text-anchor="middle" color="#ffffff" transform="matrix(1,0,0,1,222.5,268)" display="none" style="fill: rgb(255, 255, 255);"><g ></g><g ></g><g ></g><g ></g></g><image  id="v-343"></image></g></g><!--z-index:31--><g   id="j_36"  transform="translate(299,3392)" style=""><g  id="v-350" style="opacity: 1;"><path  d="M 0,30 a 225,30 0,0,0 450 0 a 225,30 0,0,0 -450 0 l 0,240 a 225,30 0,0,0 450 0 l 0,-240" id="v-351" stroke-width="2" pointer-events="visiblePainted" fill="#438dd5" stroke="#3c7fc0" stroke-dasharray="" style="fill: rgb(67, 141, 213); stroke: rgb(60, 127, 192);"></path><rect  id="v-352" stroke-width="0" pointer-events="visiblePainted" fill="none" stroke="none" width="450" height="270" x="0" y="30"></rect><text  id="v-353" font-size="33.599999999999994px" xml:space="preserve" y="48.620000000000005" font-weight="bold" text-anchor="middle" pointer-events="visible" font-family="Tahoma, Verdana, Helvetica, Arial" fill="#ffffff" dominant-baseline="hanging" transform="matrix(1,0,0,1,225,0)" style="fill: rgb(255, 255, 255);"><tspan dy="0" >Session Bindings</tspan></text><text  id="v-354" font-size="16.799999999999997px" xml:space="preserve" y="90.22" text-anchor="middle" font-family="Tahoma, Verdana, Helvetica, Arial" fill="#ffffff" dominant-baseline="hanging" transform="matrix(1,0,0,1,225,0)" style="display: block; fill: rgb(255, 255, 255);"><tspan dy="0" >from Factory Flow Control</tspan><tspan dy="1.2em" x="0" >[Container: YAML files]</tspan></text><text  id="v-355" font-size="24px" xml:space="preserve" y="142.18" text-anchor="middle" font-family="Tahoma, Verdana, Helvetica, Arial" fill="#ffffff" dominant-baseline="hanging" transform="matrix(1,0,0,1,225,0)" style="display: block; fill: rgb(255, 255, 255);"><tspan dy="0" >Session-to-workstream navigation</tspan><tspan dy="1.2em" x="0" >state under .current-work/session-bi</tspan><tspan dy="1.2em" x="0" >ndings/&lt;cli&gt;/&lt;session-id&gt;.yaml;</tspan><tspan dy="1.2em" x="0" >tracks observed revision and</tspan><tspan dy="1.2em" x="0" >SHA-256 digest</tspan></text><g  id="v-356" font-weight="normal" text-anchor="middle" color="#ffffff" transform="matrix(1,0,0,1,222.5,268)" display="none" style="fill: rgb(255, 255, 255);"><g ></g><g ></g><g ></g><g ></g></g><image  id="v-357"></image></g></g><!--z-index:32--><g   id="j_37"  transform="translate(299,3742)" style=""><g  id="v-361" style="opacity: 1;"><path  d="M 0,30 a 225,30 0,0,0 450 0 a 225,30 0,0,0 -450 0 l 0,240 a 225,30 0,0,0 450 0 l 0,-240" id="v-362" stroke-width="2" pointer-events="visiblePainted" fill="#438dd5" stroke="#3c7fc0" stroke-dasharray="" style="fill: rgb(67, 141, 213); stroke: rgb(60, 127, 192);"></path><rect  id="v-363" stroke-width="0" pointer-events="visiblePainted" fill="none" stroke="none" width="450" height="270" x="0" y="30"></rect><text  id="v-364" font-size="33.599999999999994px" xml:space="preserve" y="77.42000000000002" font-weight="bold" text-anchor="middle" pointer-events="visible" font-family="Tahoma, Verdana, Helvetica, Arial" fill="#ffffff" dominant-baseline="hanging" transform="matrix(1,0,0,1,225,0)" style="fill: rgb(255, 255, 255);"><tspan dy="0" >State Files</tspan></text><text  id="v-365" font-size="16.799999999999997px" xml:space="preserve" y="119.02000000000001" text-anchor="middle" font-family="Tahoma, Verdana, Helvetica, Arial" fill="#ffffff" dominant-baseline="hanging" transform="matrix(1,0,0,1,225,0)" style="display: block; fill: rgb(255, 255, 255);"><tspan dy="0" >from Factory Flow Control</tspan><tspan dy="1.2em" x="0" >[Container: YAML/JSON files]</tspan></text><text  id="v-366" font-size="24px" xml:space="preserve" y="170.98000000000002" text-anchor="middle" font-family="Tahoma, Verdana, Helvetica, Arial" fill="#ffffff" dominant-baseline="hanging" transform="matrix(1,0,0,1,225,0)" style="display: block; fill: rgb(255, 255, 255);"><tspan dy="0" >Local git-ignored dispatch ledgers,</tspan><tspan dy="1.2em" x="0" >quality-gate reports, and legacy</tspan><tspan dy="1.2em" x="0" >playbook marker</tspan></text><g  id="v-367" font-weight="normal" text-anchor="middle" color="#ffffff" transform="matrix(1,0,0,1,222.5,268)" display="none" style="fill: rgb(255, 255, 255);"><g ></g><g ></g><g ></g><g ></g></g><image  id="v-368"></image></g></g><!--z-index:33--><g   id="j_38"  transform="translate(299,4092)" style=""><g  id="v-372" style="opacity: 1;"><path  d="M 0,30 a 225,30 0,0,0 450 0 a 225,30 0,0,0 -450 0 l 0,240 a 225,30 0,0,0 450 0 l 0,-240" id="v-373" stroke-width="2" pointer-events="visiblePainted" fill="#438dd5" stroke="#3c7fc0" stroke-dasharray="" style="fill: rgb(67, 141, 213); stroke: rgb(60, 127, 192);"></path><rect  id="v-374" stroke-width="0" pointer-events="visiblePainted" fill="none" stroke="none" width="450" height="270" x="0" y="30"></rect><text  id="v-375" font-size="33.599999999999994px" xml:space="preserve" y="91.82000000000001" font-weight="bold" text-anchor="middle" pointer-events="visible" font-family="Tahoma, Verdana, Helvetica, Arial" fill="#ffffff" dominant-baseline="hanging" transform="matrix(1,0,0,1,225,0)" style="fill: rgb(255, 255, 255);"><tspan dy="0" >Catalog</tspan></text><text  id="v-376" font-size="16.799999999999997px" xml:space="preserve" y="133.42000000000002" text-anchor="middle" font-family="Tahoma, Verdana, Helvetica, Arial" fill="#ffffff" dominant-baseline="hanging" transform="matrix(1,0,0,1,225,0)" style="display: block; fill: rgb(255, 255, 255);"><tspan dy="0" >from Factory Flow Control</tspan><tspan dy="1.2em" x="0" >[Container: YAML file]</tspan></text><text  id="v-377" font-size="24px" xml:space="preserve" y="185.38" text-anchor="middle" font-family="Tahoma, Verdana, Helvetica, Arial" fill="#ffffff" dominant-baseline="hanging" transform="matrix(1,0,0,1,225,0)" style="display: block; fill: rgb(255, 255, 255);"><tspan dy="0" >Generated INDEX.yaml of</tspan><tspan dy="1.2em" x="0" >agents/skills/playbooks</tspan></text><g  id="v-378" font-weight="normal" text-anchor="middle" color="#ffffff" transform="matrix(1,0,0,1,222.5,268)" display="none" style="fill: rgb(255, 255, 255);"><g ></g><g ></g><g ></g><g ></g></g><image  id="v-379"></image></g></g><!--z-index:34--><g   id="j_39"  transform="translate(299,4442)" style=""><g  id="v-386" style="opacity: 1;"><path  d="M 0,30 a 225,30 0,0,0 450 0 a 225,30 0,0,0 -450 0 l 0,240 a 225,30 0,0,0 450 0 l 0,-240" id="v-387" stroke-width="2" pointer-events="visiblePainted" fill="#438dd5" stroke="#3c7fc0" stroke-dasharray="" style="fill: rgb(67, 141, 213); stroke: rgb(60, 127, 192);"></path><rect  id="v-388" stroke-width="0" pointer-events="visiblePainted" fill="none" stroke="none" width="450" height="270" x="0" y="30"></rect><text  id="v-389" font-size="33.599999999999994px" xml:space="preserve" y="48.620000000000005" font-weight="bold" text-anchor="middle" pointer-events="visible" font-family="Tahoma, Verdana, Helvetica, Arial" fill="#ffffff" dominant-baseline="hanging" transform="matrix(1,0,0,1,225,0)" style="fill: rgb(255, 255, 255);"><tspan dy="0" >Usage Record Contract</tspan></text><text  id="v-390" font-size="16.799999999999997px" xml:space="preserve" y="90.22" text-anchor="middle" font-family="Tahoma, Verdana, Helvetica, Arial" fill="#ffffff" dominant-baseline="hanging" transform="matrix(1,0,0,1,225,0)" style="display: block; fill: rgb(255, 255, 255);"><tspan dy="0" >from Factory Flow Control</tspan><tspan dy="1.2em" x="0" >[Container: JSON Schema/YAML]</tspan></text><text  id="v-391" font-size="24px" xml:space="preserve" y="142.18" text-anchor="middle" font-family="Tahoma, Verdana, Helvetica, Arial" fill="#ffffff" dominant-baseline="hanging" transform="matrix(1,0,0,1,225,0)" style="display: block; fill: rgb(255, 255, 255);"><tspan dy="0" >Factory-owned JSON Schema Draft</tspan><tspan dy="1.2em" x="0" >2020-12 and compatibility manifest;</tspan><tspan dy="1.2em" x="0" >v1 schema includes optional</tspan><tspan dy="1.2em" x="0" >workstream_id, workstream_origin,</tspan><tspan dy="1.2em" x="0" >and cycle fields</tspan></text><g  id="v-392" font-weight="normal" text-anchor="middle" color="#ffffff" transform="matrix(1,0,0,1,222.5,268)" display="none" style="fill: rgb(255, 255, 255);"><g ></g><g ></g><g ></g><g ></g></g><image  id="v-393"></image></g></g><!--z-index:35--><g   id="j_40"  transform="translate(299,4792)" style=""><g  id="v-397" style="opacity: 1;"><path  d="M 0,30 a 225,30 0,0,0 450 0 a 225,30 0,0,0 -450 0 l 0,240 a 225,30 0,0,0 450 0 l 0,-240" id="v-398" stroke-width="2" pointer-events="visiblePainted" fill="#438dd5" stroke="#3c7fc0" stroke-dasharray="" style="fill: rgb(67, 141, 213); stroke: rgb(60, 127, 192);"></path><rect  id="v-399" stroke-width="0" pointer-events="visiblePainted" fill="none" stroke="none" width="450" height="270" x="0" y="30"></rect><text  id="v-400" font-size="33.599999999999994px" xml:space="preserve" y="77.42000000000002" font-weight="bold" text-anchor="middle" pointer-events="visible" font-family="Tahoma, Verdana, Helvetica, Arial" fill="#ffffff" dominant-baseline="hanging" transform="matrix(1,0,0,1,225,0)" style="fill: rgb(255, 255, 255);"><tspan dy="0" >Raw Usage Spool</tspan></text><text  id="v-401" font-size="16.799999999999997px" xml:space="preserve" y="119.02000000000001" text-anchor="middle" font-family="Tahoma, Verdana, Helvetica, Arial" fill="#ffffff" dominant-baseline="hanging" transform="matrix(1,0,0,1,225,0)" style="display: block; fill: rgb(255, 255, 255);"><tspan dy="0" >from Factory Flow Control</tspan><tspan dy="1.2em" x="0" >[Container: JSONL files]</tspan></text><text  id="v-402" font-size="24px" xml:space="preserve" y="170.98000000000002" text-anchor="middle" font-family="Tahoma, Verdana, Helvetica, Arial" fill="#ffffff" dominant-baseline="hanging" transform="matrix(1,0,0,1,225,0)" style="display: block; fill: rgb(255, 255, 255);"><tspan dy="0" >Authoritative append-only top-level</tspan><tspan dy="1.2em" x="0" >JSONL records under</tspan><tspan dy="1.2em" x="0" >.agent-factory/usage/</tspan></text><g  id="v-403" font-weight="normal" text-anchor="middle" color="#ffffff" transform="matrix(1,0,0,1,222.5,268)" display="none" style="fill: rgb(255, 255, 255);"><g ></g><g ></g><g ></g><g ></g></g><image  id="v-404"></image></g></g><!--z-index:36--><g   id="j_41"  transform="translate(299,5142)" style=""><g  id="v-411" style="opacity: 1;"><path  d="M 0,30 a 225,30 0,0,0 450 0 a 225,30 0,0,0 -450 0 l 0,240 a 225,30 0,0,0 450 0 l 0,-240" id="v-412" stroke-width="2" pointer-events="visiblePainted" fill="#438dd5" stroke="#3c7fc0" stroke-dasharray="" style="fill: rgb(67, 141, 213); stroke: rgb(60, 127, 192);"></path><rect  id="v-413" stroke-width="0" pointer-events="visiblePainted" fill="none" stroke="none" width="450" height="270" x="0" y="30"></rect><text  id="v-414" font-size="33.599999999999994px" xml:space="preserve" y="91.82000000000001" font-weight="bold" text-anchor="middle" pointer-events="visible" font-family="Tahoma, Verdana, Helvetica, Arial" fill="#ffffff" dominant-baseline="hanging" transform="matrix(1,0,0,1,225,0)" style="fill: rgb(255, 255, 255);"><tspan dy="0" >Install Manifest</tspan></text><text  id="v-415" font-size="16.799999999999997px" xml:space="preserve" y="133.42000000000002" text-anchor="middle" font-family="Tahoma, Verdana, Helvetica, Arial" fill="#ffffff" dominant-baseline="hanging" transform="matrix(1,0,0,1,225,0)" style="display: block; fill: rgb(255, 255, 255);"><tspan dy="0" >from Factory Flow Control</tspan><tspan dy="1.2em" x="0" >[Container: JSON file]</tspan></text><text  id="v-416" font-size="24px" xml:space="preserve" y="185.38" text-anchor="middle" font-family="Tahoma, Verdana, Helvetica, Arial" fill="#ffffff" dominant-baseline="hanging" transform="matrix(1,0,0,1,225,0)" style="display: block; fill: rgb(255, 255, 255);"><tspan dy="0" >Records installed CLI integrations</tspan><tspan dy="1.2em" x="0" >and opt-in components</tspan></text><g  id="v-417" font-weight="normal" text-anchor="middle" color="#ffffff" transform="matrix(1,0,0,1,222.5,268)" display="none" style="fill: rgb(255, 255, 255);"><g ></g><g ></g><g ></g><g ></g></g><image  id="v-418"></image></g></g><!--z-index:37--><g   id="j_42"  transform="translate(299,5492)" style=""><g  id="v-428" style="opacity: 1;"><rect  id="v-429" rx="20" ry="20" stroke-width="2" pointer-events="visiblePainted" fill="#438dd5" stroke="#3c7fc0" stroke-dasharray="" width="450" height="300" style="fill: rgb(67, 141, 213); stroke: rgb(60, 127, 192);"></rect><text  id="v-430" font-size="33.599999999999994px" xml:space="preserve" y="62.420000000000016" font-weight="bold" text-anchor="middle" pointer-events="visible" font-family="Tahoma, Verdana, Helvetica, Arial" fill="#ffffff" dominant-baseline="hanging" transform="matrix(1,0,0,1,225,0)" style="fill: rgb(255, 255, 255);"><tspan dy="0" >Usage Analysis Runtime</tspan></text><text  id="v-431" font-size="16.799999999999997px" xml:space="preserve" y="104.02000000000001" text-anchor="middle" font-family="Tahoma, Verdana, Helvetica, Arial" fill="#ffffff" dominant-baseline="hanging" transform="matrix(1,0,0,1,225,0)" style="display: block; fill: rgb(255, 255, 255);"><tspan dy="0" >from Usage Analysis</tspan><tspan dy="1.2em" x="0" >[Container: Python/DuckDB/PyArrow]</tspan></text><text  id="v-432" font-size="24px" xml:space="preserve" y="155.98000000000002" text-anchor="middle" font-family="Tahoma, Verdana, Helvetica, Arial" fill="#ffffff" dominant-baseline="hanging" transform="matrix(1,0,0,1,225,0)" style="display: block; fill: rgb(255, 255, 255);"><tspan dy="0" >Runs usage-query from the</tspan><tspan dy="1.2em" x="0" >installed, locked Python project and</tspan><tspan dy="1.2em" x="0" >owns the query model</tspan></text><g  id="v-433" color="#ffffff" transform="matrix(1,0,0,1,210,268)" display="none" style="fill: rgb(255, 255, 255);"><g  transform="translate(5 0)"><svg xmlns="http://www.w3.org/2000/svg" width="20" height="20" fill="currentColor" viewBox="0 0 16 16"><path fill-rule="evenodd" d="M6.5 12a5.5 5.5 0 1 0 0-11 5.5 5.5 0 0 0 0 11zM13 6.5a6.5 6.5 0 1 1-13 0 6.5 6.5 0 0 1 13 0z"></path><path d="M10.344 11.742c.03.04.062.078.098.115l3.85 3.85a1 1 0 0 0 1.415-1.414l-3.85-3.85a1.007 1.007 0 0 0-.115-.1 6.538 6.538 0 0 1-1.398 1.4z"></path><path fill-rule="evenodd" d="M6.5 3a.5.5 0 0 1 .5.5V6h2.5a.5.5 0 0 1 0 1H7v2.5a.5.5 0 0 1-1 0V7H3.5a.5.5 0 0 1 0-1H6V3.5a.5.5 0 0 1 .5-.5z"></path></svg></g><g ></g><g ></g><g ></g></g><image  id="v-434"></image></g></g><!--z-index:38--><g   id="j_43"  transform="translate(299,5842)" style=""><g  id="v-438" style="opacity: 1;"><rect  id="v-439" rx="20" ry="20" stroke-width="2" pointer-events="visiblePainted" fill="#438dd5" stroke="#3c7fc0" stroke-dasharray="" width="450" height="300" style="fill: rgb(67, 141, 213); stroke: rgb(60, 127, 192);"></rect><text  id="v-440" font-size="33.599999999999994px" xml:space="preserve" y="48.02000000000001" font-weight="bold" text-anchor="middle" pointer-events="visible" font-family="Tahoma, Verdana, Helvetica, Arial" fill="#ffffff" dominant-baseline="hanging" transform="matrix(1,0,0,1,225,0)" style="fill: rgb(255, 255, 255);"><tspan dy="0" >DuckDB UI</tspan></text><text  id="v-441" font-size="16.799999999999997px" xml:space="preserve" y="89.62" text-anchor="middle" font-family="Tahoma, Verdana, Helvetica, Arial" fill="#ffffff" dominant-baseline="hanging" transform="matrix(1,0,0,1,225,0)" style="display: block; fill: rgb(255, 255, 255);"><tspan dy="0" >from Usage Analysis</tspan><tspan dy="1.2em" x="0" >[Container: DuckDB bundled UI]</tspan></text><text  id="v-442" font-size="24px" xml:space="preserve" y="141.57999999999998" text-anchor="middle" font-family="Tahoma, Verdana, Helvetica, Arial" fill="#ffffff" dominant-baseline="hanging" transform="matrix(1,0,0,1,225,0)" style="display: block; fill: rgb(255, 255, 255);"><tspan dy="0" >Optional ephemeral localhost</tspan><tspan dy="1.2em" x="0" >exploration of the same six</tspan><tspan dy="1.2em" x="0" >published views; never gate</tspan><tspan dy="1.2em" x="0" >evidence</tspan></text><g  id="v-443" color="#ffffff" transform="matrix(1,0,0,1,222.5,268)" display="none" style="fill: rgb(255, 255, 255);"><g ></g><g ></g><g ></g><g ></g></g><image  id="v-444"></image></g></g><!--z-index:39--><g   id="j_44"  transform="translate(299,6192)" style=""><g  id="v-451" style="opacity: 1;"><path  d="M 0,30 a 225,30 0,0,0 450 0 a 225,30 0,0,0 -450 0 l 0,240 a 225,30 0,0,0 450 0 l 0,-240" id="v-452" stroke-width="2" pointer-events="visiblePainted" fill="#438dd5" stroke="#3c7fc0" stroke-dasharray="" style="fill: rgb(67, 141, 213); stroke: rgb(60, 127, 192);"></path><rect  id="v-453" stroke-width="0" pointer-events="visiblePainted" fill="none" stroke="none" width="450" height="270" x="0" y="30"></rect><text  id="v-454" font-size="33.599999999999994px" xml:space="preserve" y="63.02000000000001" font-weight="bold" text-anchor="middle" pointer-events="visible" font-family="Tahoma, Verdana, Helvetica, Arial" fill="#ffffff" dominant-baseline="hanging" transform="matrix(1,0,0,1,225,0)" style="fill: rgb(255, 255, 255);"><tspan dy="0" >Installed Analysis Module</tspan></text><text  id="v-455" font-size="16.799999999999997px" xml:space="preserve" y="104.62" text-anchor="middle" font-family="Tahoma, Verdana, Helvetica, Arial" fill="#ffffff" dominant-baseline="hanging" transform="matrix(1,0,0,1,225,0)" style="display: block; fill: rgb(255, 255, 255);"><tspan dy="0" >from Usage Analysis</tspan><tspan dy="1.2em" x="0" >[Container: Files]</tspan></text><text  id="v-456" font-size="24px" xml:space="preserve" y="156.57999999999998" text-anchor="middle" font-family="Tahoma, Verdana, Helvetica, Arial" fill="#ffffff" dominant-baseline="hanging" transform="matrix(1,0,0,1,225,0)" style="display: block; fill: rgb(255, 255, 255);"><tspan dy="0" >Versioned SQL, accounting rules,</tspan><tspan dy="1.2em" x="0" >contract copy, lockfile, and</tspan><tspan dy="1.2em" x="0" >executable package under</tspan><tspan dy="1.2em" x="0" >.agent-factory/usage-analysis/</tspan></text><g  id="v-457" font-weight="normal" text-anchor="middle" color="#ffffff" transform="matrix(1,0,0,1,222.5,268)" display="none" style="fill: rgb(255, 255, 255);"><g ></g><g ></g><g ></g><g ></g></g><image  id="v-458"></image></g></g><!--z-index:40--><g   id="j_26"  transform="translate(20,6964)"><g id="v-243"><text  id="v-244" font-size="24px" xml:space="preserve" y="0.8em" font-weight="normal" text-anchor="start" fill="#444444" pointer-events="none" display="block" font-family="Tahoma, Verdana, Helvetica, Arial"><tspan dy="0" >Monday, September 14, 2026 at 9:49 PM Coordinated Universal Time</tspan></text></g></g><!--z-index:41--><g   id="j_25"  transform="translate(20,6930)"><g id="v-241"><text  id="v-242" font-size="24px" xml:space="preserve" y="0.8em" font-weight="normal" text-anchor="start" fill="#444444" pointer-events="none" display="block" font-family="Tahoma, Verdana, Helvetica, Arial"><tspan dy="0" >Local, process-bound release-1 deployment</tspan></text></g></g><!--z-index:42--><g   id="j_24"  transform="translate(20,6884)"><g id="v-239"><text  id="v-240" font-size="36px" xml:space="preserve" y="0.8em" font-weight="normal" text-anchor="start" fill="#444444" pointer-events="none" display="block" font-family="Tahoma, Verdana, Helvetica, Arial"><tspan dy="0" >Deployment View: Release 1</tspan></text></g></g><!--z-index:43--></g><g  style="user-select: none;"></g><g ></g><g  display="none"></g></g></svg>