<svg xmlns="http://www.w3.org/2000/svg" xmlns:xlink="http://www.w3.org/1999/xlink" version="1.1" width="3630" height="3056" style="width: 3630px; height: 3056px; background: #ffffff" viewBox="0 0 3630 3056"><style id="v-3" type="text/css">        .joint-element .scalable * {            vector-effect: non-scaling-stroke;        }    </style><defs joint-selector="defs"><marker id="v-21252848929" orient="auto" overflow="visible" markerUnits="userSpaceOnUse"><path id="v-502" stroke="#444444" fill="#444444" transform="rotate(180)" d="M 20 -10 0 0 20 10 Z"></path></marker></defs><g joint-selector="layers"  transform="matrix(1,0,0,1,0,0)"><g  style="pointer-events: none;"></g><g ></g><g  style="user-select: none;"><!--z-index:-2--><!--z-index:-1--><!--z-index:0--><!--z-index:1--><!--z-index:2--><!--z-index:3--><!--z-index:4--><!--z-index:5--><!--z-index:6--><!--z-index:7--><!--z-index:8--><!--z-index:9--><!--z-index:10--><!--z-index:11--><!--z-index:12--><!--z-index:13--><!--z-index:14--><!--z-index:15--><!--z-index:16--><!--z-index:17--><!--z-index:18--><!--z-index:19--><!--z-index:20--><!--z-index:21--><!--z-index:22--><!--z-index:23--><!--z-index:24--><g   id="j_101"  transform="translate(20,3012)"><g id="v-1101"><text  id="v-1102" font-size="24px" xml:space="preserve" y="0.8em" font-weight="normal" text-anchor="start" fill="#444444" pointer-events="none" display="block" font-family="Tahoma, Verdana, Helvetica, Arial"><tspan dy="0" >Monday, September 21, 2026 at 1:51 PM Coordinated Universal Time</tspan></text></g></g><!--z-index:25--><g   id="j_100"  transform="translate(20,2978)"><g id="v-1099"><text  id="v-1100" font-size="24px" xml:space="preserve" y="0.8em" font-weight="normal" text-anchor="start" fill="#444444" pointer-events="none" display="block" font-family="Tahoma, Verdana, Helvetica, Arial"><tspan dy="0" >Eligibility engine internals: agent loading, precondition evaluation, readiness derivation, and recommendation classification</tspan></text></g></g><!--z-index:26--><g   id="j_99"  transform="translate(20,2932)"><g id="v-1097"><text  id="v-1098" font-size="36px" xml:space="preserve" y="0.8em" font-weight="normal" text-anchor="start" fill="#444444" pointer-events="none" display="block" font-family="Tahoma, Verdana, Helvetica, Arial"><tspan dy="0" >Component View: Factory Flow Control - Eligibility Engine</tspan></text></g></g><!--z-index:27--><g   id="j_102"  transform="translate(825,143)" style=""><g  id="v-1109" style="opacity: 1;"><rect  x="0" y="160" width="400" height="240" rx="70" id="v-1111" stroke-width="2" pointer-events="visiblePainted" fill="#08427b" stroke="#073b6f" stroke-dasharray="" style="fill: rgb(8, 66, 123); stroke: rgb(7, 59, 111);"></rect><circle  cx="200" cy="88.88888888888889" r="88.88888888888889" id="v-1110" stroke-width="2" pointer-events="visiblePainted" fill="#08427b" stroke="#073b6f" stroke-dasharray="" style="fill: rgb(8, 66, 123); stroke: rgb(7, 59, 111);"></circle><line  x1="80" y1="266.6666666666667" x2="80" y2="400" id="v-1117" stroke="#073b6f" stroke-width="1" stroke-dasharray="" style="stroke: rgb(7, 59, 111);"></line><line  x1="320" y1="266.6666666666667" x2="320" y2="400" id="v-1118" stroke="#073b6f" stroke-width="1" stroke-dasharray="" style="stroke: rgb(7, 59, 111);"></line><text  id="v-1112" font-size="33.599999999999994px" xml:space="preserve" y="216.9" font-weight="bold" text-anchor="middle" pointer-events="visible" font-family="Tahoma, Verdana, Helvetica, Arial" fill="#ffffff" dominant-baseline="hanging" transform="matrix(1,0,0,1,200,0)" style="fill: rgb(255, 255, 255);"><tspan dy="0" >Human Operator</tspan></text><text  id="v-1113" font-size="16.799999999999997px" xml:space="preserve" y="258.5" text-anchor="middle" font-family="Tahoma, Verdana, Helvetica, Arial" fill="#ffffff" dominant-baseline="hanging" transform="matrix(1,0,0,1,200,0)" style="display: block; fill: rgb(255, 255, 255);"><tspan dy="0" >[Person]</tspan></text><text  id="v-1114" font-size="24px" xml:space="preserve" y="290.3" text-anchor="middle" font-family="Tahoma, Verdana, Helvetica, Arial" fill="#ffffff" dominant-baseline="hanging" transform="matrix(1,0,0,1,200,0)" style="display: block; fill: rgb(255, 255, 255);"><tspan dy="0" >Person driving Agent Factory</tspan><tspan dy="1.2em" x="0" >by hand</tspan></text><g  id="v-1115" font-weight="normal" text-anchor="middle" color="#ffffff" transform="matrix(1,0,0,1,197.5,368)" display="none" style="fill: rgb(255, 255, 255);"><g ></g><g ></g><g ></g><g ></g></g><image  id="v-1116"></image></g></g><!--z-index:28--><g   id="j_105"  transform="translate(200,724)" style="; opacity: 1;"><g id="v-1134"><rect  id="v-1135" width="3230" height="2074" rx="20" ry="20" stroke-width="2" pointer-events="none" stroke="#0f5eaa" fill="#ffffff" opacity="1" stroke-dasharray=""></rect><text  id="v-1136" font-size="33.599999999999994px" xml:space="preserve" y="2035" font-weight="bold" text-anchor="start" pointer-events="visible" font-family="Tahoma, Verdana, Helvetica, Arial" fill="#1168bd" transform="matrix(1,0,0,1,15,0)"><tspan dy="0" >Factory Flow Control</tspan></text><text  id="v-1137" font-size="16.799999999999997px" xml:space="preserve" y="2059" font-weight="normal" text-anchor="start" pointer-events="visible" font-family="Tahoma, Verdana, Helvetica, Arial" fill="#1168bd" transform="matrix(1,0,0,1,15,0)"><tspan dy="0" >[Software System]</tspan></text><image  id="v-1138" pointer-events="visible"></image></g></g><!--z-index:29--><g   id="j_104"  transform="translate(250,774)" style="; opacity: 1;"><g id="v-1129"><rect  id="v-1130" width="2130" height="1895" rx="20" ry="20" stroke-width="2" pointer-events="none" stroke="#3c7fc0" fill="#ffffff" opacity="1" stroke-dasharray=""></rect><text  id="v-1131" font-size="33.599999999999994px" xml:space="preserve" y="1856" font-weight="bold" text-anchor="start" pointer-events="visible" font-family="Tahoma, Verdana, Helvetica, Arial" fill="#438dd5" transform="matrix(1,0,0,1,15,0)"><tspan dy="0" >Eligibility Engine</tspan></text><text  id="v-1132" font-size="16.799999999999997px" xml:space="preserve" y="1880" font-weight="normal" text-anchor="start" pointer-events="visible" font-family="Tahoma, Verdana, Helvetica, Arial" fill="#438dd5" transform="matrix(1,0,0,1,15,0)"><tspan dy="0" >[Container]</tspan></text><image  id="v-1133" pointer-events="visible"></image></g></g><!--z-index:30--><g   id="j_112"  transform="translate(2680,1306)" style=""><g  id="v-1217" style="opacity: 1;"><rect  id="v-1218" rx="20" ry="20" stroke-width="2" pointer-events="visiblePainted" fill="#438dd5" stroke="#3c7fc0" stroke-dasharray="" width="450" height="300" style="fill: rgb(67, 141, 213); stroke: rgb(60, 127, 192);"></rect><text  id="v-1219" font-size="33.599999999999994px" xml:space="preserve" y="58.10000000000001" font-weight="bold" text-anchor="middle" pointer-events="visible" font-family="Tahoma, Verdana, Helvetica, Arial" fill="#ffffff" dominant-baseline="hanging" transform="matrix(1,0,0,1,225,0)" style="fill: rgb(255, 255, 255);"><tspan dy="0" >Validator</tspan></text><text  id="v-1220" font-size="16.799999999999997px" xml:space="preserve" y="99.7" text-anchor="middle" font-family="Tahoma, Verdana, Helvetica, Arial" fill="#ffffff" dominant-baseline="hanging" transform="matrix(1,0,0,1,225,0)" style="display: block; fill: rgb(255, 255, 255);"><tspan dy="0" >[Container: Bash/Python]</tspan></text><text  id="v-1221" font-size="24px" xml:space="preserve" y="131.5" text-anchor="middle" font-family="Tahoma, Verdana, Helvetica, Arial" fill="#ffffff" dominant-baseline="hanging" transform="matrix(1,0,0,1,225,0)" style="display: block; fill: rgb(255, 255, 255);"><tspan dy="0" >Enforces gates, permissions,</tspan><tspan dy="1.2em" x="0" >project-declared test gate presence,</tspan><tspan dy="1.2em" x="0" >agent-context structure, and</tspan><tspan dy="1.2em" x="0" >semantic quality checks</tspan></text><g  id="v-1222" color="#ffffff" transform="matrix(1,0,0,1,210,268)" display="none" style="fill: rgb(255, 255, 255);"><g  transform="translate(5 0)"><svg xmlns="http://www.w3.org/2000/svg" width="20" height="20" fill="currentColor" viewBox="0 0 16 16"><path fill-rule="evenodd" d="M6.5 12a5.5 5.5 0 1 0 0-11 5.5 5.5 0 0 0 0 11zM13 6.5a6.5 6.5 0 1 1-13 0 6.5 6.5 0 0 1 13 0z"></path><path d="M10.344 11.742c.03.04.062.078.098.115l3.85 3.85a1 1 0 0 0 1.415-1.414l-3.85-3.85a1.007 1.007 0 0 0-.115-.1 6.538 6.538 0 0 1-1.398 1.4z"></path><path fill-rule="evenodd" d="M6.5 3a.5.5 0 0 1 .5.5V6h2.5a.5.5 0 0 1 0 1H7v2.5a.5.5 0 0 1-1 0V7H3.5a.5.5 0 0 1 0-1H6V3.5a.5.5 0 0 1 .5-.5z"></path></svg></g><g ></g><g ></g><g ></g></g><image  id="v-1223"></image></g></g><!--z-index:31--><g   id="j_113"  transform="translate(2430,2240)" style=""><g  id="v-1230" style="opacity: 1;"><path  d="M 0,30 a 225,30 0,0,0 450 0 a 225,30 0,0,0 -450 0 l 0,240 a 225,30 0,0,0 450 0 l 0,-240" id="v-1231" stroke-width="2" pointer-events="visiblePainted" fill="#438dd5" stroke="#3c7fc0" stroke-dasharray="" style="fill: rgb(67, 141, 213); stroke: rgb(60, 127, 192);"></path><rect  id="v-1232" stroke-width="0" pointer-events="visiblePainted" fill="none" stroke="none" width="450" height="270" x="0" y="30"></rect><text  id="v-1233" font-size="33.599999999999994px" xml:space="preserve" y="58.70000000000002" font-weight="bold" text-anchor="middle" pointer-events="visible" font-family="Tahoma, Verdana, Helvetica, Arial" fill="#ffffff" dominant-baseline="hanging" transform="matrix(1,0,0,1,225,0)" style="fill: rgb(255, 255, 255);"><tspan dy="0" >Workstream State</tspan></text><text  id="v-1234" font-size="16.799999999999997px" xml:space="preserve" y="100.30000000000001" text-anchor="middle" font-family="Tahoma, Verdana, Helvetica, Arial" fill="#ffffff" dominant-baseline="hanging" transform="matrix(1,0,0,1,225,0)" style="display: block; fill: rgb(255, 255, 255);"><tspan dy="0" >[Container: YAML files]</tspan></text><text  id="v-1235" font-size="24px" xml:space="preserve" y="132.10000000000002" text-anchor="middle" font-family="Tahoma, Verdana, Helvetica, Arial" fill="#ffffff" dominant-baseline="hanging" transform="matrix(1,0,0,1,225,0)" style="display: block; fill: rgb(255, 255, 255);"><tspan dy="0" >Immutable workstream identity</tspan><tspan dy="1.2em" x="0" >records under</tspan><tspan dy="1.2em" x="0" >.agent-factory/workstreams/; each</tspan><tspan dy="1.2em" x="0" >records schema_version,</tspan><tspan dy="1.2em" x="0" >workstream_id, topic, and origin_ref</tspan></text><g  id="v-1236" font-weight="normal" text-anchor="middle" color="#ffffff" transform="matrix(1,0,0,1,222.5,268)" display="none" style="fill: rgb(255, 255, 255);"><g ></g><g ></g><g ></g><g ></g></g><image  id="v-1237"></image></g></g><!--z-index:32--><g   id="j_114"  transform="translate(2930,2240)" style=""><g  id="v-1244" style="opacity: 1;"><path  d="M 0,30 a 225,30 0,0,0 450 0 a 225,30 0,0,0 -450 0 l 0,240 a 225,30 0,0,0 450 0 l 0,-240" id="v-1245" stroke-width="2" pointer-events="visiblePainted" fill="#438dd5" stroke="#3c7fc0" stroke-dasharray="" style="fill: rgb(67, 141, 213); stroke: rgb(60, 127, 192);"></path><rect  id="v-1246" stroke-width="0" pointer-events="visiblePainted" fill="none" stroke="none" width="450" height="270" x="0" y="30"></rect><text  id="v-1247" font-size="33.599999999999994px" xml:space="preserve" y="58.70000000000002" font-weight="bold" text-anchor="middle" pointer-events="visible" font-family="Tahoma, Verdana, Helvetica, Arial" fill="#ffffff" dominant-baseline="hanging" transform="matrix(1,0,0,1,225,0)" style="fill: rgb(255, 255, 255);"><tspan dy="0" >Session Bindings</tspan></text><text  id="v-1248" font-size="16.799999999999997px" xml:space="preserve" y="100.30000000000001" text-anchor="middle" font-family="Tahoma, Verdana, Helvetica, Arial" fill="#ffffff" dominant-baseline="hanging" transform="matrix(1,0,0,1,225,0)" style="display: block; fill: rgb(255, 255, 255);"><tspan dy="0" >[Container: YAML files]</tspan></text><text  id="v-1249" font-size="24px" xml:space="preserve" y="132.10000000000002" text-anchor="middle" font-family="Tahoma, Verdana, Helvetica, Arial" fill="#ffffff" dominant-baseline="hanging" transform="matrix(1,0,0,1,225,0)" style="display: block; fill: rgb(255, 255, 255);"><tspan dy="0" >Session-to-workstream mapping</tspan><tspan dy="1.2em" x="0" >under .agent-factory/workstreams/se</tspan><tspan dy="1.2em" x="0" >ssions/&lt;session-id&gt;.yaml; records</tspan><tspan dy="1.2em" x="0" >session_id, workstream_id, and</tspan><tspan dy="1.2em" x="0" >bound_at</tspan></text><g  id="v-1250" font-weight="normal" text-anchor="middle" color="#ffffff" transform="matrix(1,0,0,1,222.5,268)" display="none" style="fill: rgb(255, 255, 255);"><g ></g><g ></g><g ></g><g ></g></g><image  id="v-1251"></image></g></g><!--z-index:33--><g   id="j_103"  transform="translate(800,824)" style=""><g  id="v-1122" style="opacity: 1;"><rect  id="v-1123" rx="20" ry="20" stroke-width="2" pointer-events="visiblePainted" fill="#85bbf0" stroke="#78a8d8" stroke-dasharray="" width="450" height="300" style="fill: rgb(133, 187, 240); stroke: rgb(120, 168, 216);"></rect><text  id="v-1124" font-size="33.599999999999994px" xml:space="preserve" y="29.30000000000001" font-weight="bold" text-anchor="middle" pointer-events="visible" font-family="Tahoma, Verdana, Helvetica, Arial" fill="#000000" dominant-baseline="hanging" transform="matrix(1,0,0,1,225,0)" style="fill: rgb(0, 0, 0);"><tspan dy="0" >intent</tspan></text><text  id="v-1125" font-size="16.799999999999997px" xml:space="preserve" y="70.9" text-anchor="middle" font-family="Tahoma, Verdana, Helvetica, Arial" fill="#000000" dominant-baseline="hanging" transform="matrix(1,0,0,1,225,0)" style="display: block; fill: rgb(0, 0, 0);"><tspan dy="0" >[Component: Python]</tspan></text><text  id="v-1126" font-size="24px" xml:space="preserve" y="102.7" text-anchor="middle" font-family="Tahoma, Verdana, Helvetica, Arial" fill="#000000" dominant-baseline="hanging" transform="matrix(1,0,0,1,225,0)" style="display: block; fill: rgb(0, 0, 0);"><tspan dy="0" >CLI entry point with two</tspan><tspan dy="1.2em" x="0" >subcommands: select (list agents</tspan><tspan dy="1.2em" x="0" >with precondition evidence) and</tspan><tspan dy="1.2em" x="0" >assess (validate governed artifacts);</tspan><tspan dy="1.2em" x="0" >calls evaluate_all and</tspan><tspan dy="1.2em" x="0" >load_agent_definitions</tspan></text><g  id="v-1127" color="#000000" transform="matrix(1,0,0,1,222.5,268)" display="none" style="fill: rgb(0, 0, 0);"><g ></g><g ></g><g ></g><g ></g></g><image  id="v-1128"></image></g></g><!--z-index:34--><g   id="j_106"  transform="translate(300,1306)" style=""><g  id="v-1142" style="opacity: 1;"><rect  id="v-1143" rx="20" ry="20" stroke-width="2" pointer-events="visiblePainted" fill="#85bbf0" stroke="#78a8d8" stroke-dasharray="" width="450" height="300" style="fill: rgb(133, 187, 240); stroke: rgb(120, 168, 216);"></rect><text  id="v-1144" font-size="33.599999999999994px" xml:space="preserve" y="86.9" font-weight="bold" text-anchor="middle" pointer-events="visible" font-family="Tahoma, Verdana, Helvetica, Arial" fill="#000000" dominant-baseline="hanging" transform="matrix(1,0,0,1,225,0)" style="fill: rgb(0, 0, 0);"><tspan dy="0" >Agent Loader</tspan></text><text  id="v-1145" font-size="16.799999999999997px" xml:space="preserve" y="128.5" text-anchor="middle" font-family="Tahoma, Verdana, Helvetica, Arial" fill="#000000" dominant-baseline="hanging" transform="matrix(1,0,0,1,225,0)" style="display: block; fill: rgb(0, 0, 0);"><tspan dy="0" >[Component: Python]</tspan></text><text  id="v-1146" font-size="24px" xml:space="preserve" y="160.3" text-anchor="middle" font-family="Tahoma, Verdana, Helvetica, Arial" fill="#000000" dominant-baseline="hanging" transform="matrix(1,0,0,1,225,0)" style="display: block; fill: rgb(0, 0, 0);"><tspan dy="0" >Loads agent definitions from YAML</tspan><tspan dy="1.2em" x="0" >frontmatter in the agents directory</tspan></text><g  id="v-1147" color="#000000" transform="matrix(1,0,0,1,222.5,268)" display="none" style="fill: rgb(0, 0, 0);"><g ></g><g ></g><g ></g><g ></g></g><image  id="v-1148"></image></g></g><!--z-index:35--><g   id="j_107"  transform="translate(800,1306)" style=""><g  id="v-1155" style="opacity: 1;"><rect  id="v-1156" rx="20" ry="20" stroke-width="2" pointer-events="visiblePainted" fill="#85bbf0" stroke="#78a8d8" stroke-dasharray="" width="450" height="300" style="fill: rgb(133, 187, 240); stroke: rgb(120, 168, 216);"></rect><text  id="v-1157" font-size="33.599999999999994px" xml:space="preserve" y="43.70000000000002" font-weight="bold" text-anchor="middle" pointer-events="visible" font-family="Tahoma, Verdana, Helvetica, Arial" fill="#000000" dominant-baseline="hanging" transform="matrix(1,0,0,1,225,0)" style="fill: rgb(0, 0, 0);"><tspan dy="0" >Precondition Evaluator</tspan></text><text  id="v-1158" font-size="16.799999999999997px" xml:space="preserve" y="85.30000000000001" text-anchor="middle" font-family="Tahoma, Verdana, Helvetica, Arial" fill="#000000" dominant-baseline="hanging" transform="matrix(1,0,0,1,225,0)" style="display: block; fill: rgb(0, 0, 0);"><tspan dy="0" >[Component: Python]</tspan></text><text  id="v-1159" font-size="24px" xml:space="preserve" y="117.10000000000001" text-anchor="middle" font-family="Tahoma, Verdana, Helvetica, Arial" fill="#000000" dominant-baseline="hanging" transform="matrix(1,0,0,1,225,0)" style="display: block; fill: rgb(0, 0, 0);"><tspan dy="0" >Evaluates each agent's</tspan><tspan dy="1.2em" x="0" >inputs.required declarations against</tspan><tspan dy="1.2em" x="0" >the filesystem: resolves path</tspan><tspan dy="1.2em" x="0" >patterns, checks frontmatter</tspan><tspan dy="1.2em" x="0" >conditions, runs validator scripts</tspan></text><g  id="v-1160" color="#000000" transform="matrix(1,0,0,1,222.5,268)" display="none" style="fill: rgb(0, 0, 0);"><g ></g><g ></g><g ></g><g ></g></g><image  id="v-1161"></image></g></g><!--z-index:36--><g   id="j_108"  transform="translate(800,1758)" style=""><g  id="v-1168" style="opacity: 1;"><rect  id="v-1169" rx="20" ry="20" stroke-width="2" pointer-events="visiblePainted" fill="#85bbf0" stroke="#78a8d8" stroke-dasharray="" width="450" height="300" style="fill: rgb(133, 187, 240); stroke: rgb(120, 168, 216);"></rect><text  id="v-1170" font-size="33.599999999999994px" xml:space="preserve" y="43.70000000000002" font-weight="bold" text-anchor="middle" pointer-events="visible" font-family="Tahoma, Verdana, Helvetica, Arial" fill="#000000" dominant-baseline="hanging" transform="matrix(1,0,0,1,225,0)" style="fill: rgb(0, 0, 0);"><tspan dy="0" >Readiness Evaluator</tspan></text><text  id="v-1171" font-size="16.799999999999997px" xml:space="preserve" y="85.30000000000001" text-anchor="middle" font-family="Tahoma, Verdana, Helvetica, Arial" fill="#000000" dominant-baseline="hanging" transform="matrix(1,0,0,1,225,0)" style="display: block; fill: rgb(0, 0, 0);"><tspan dy="0" >[Component: Python]</tspan></text><text  id="v-1172" font-size="24px" xml:space="preserve" y="117.10000000000001" text-anchor="middle" font-family="Tahoma, Verdana, Helvetica, Arial" fill="#000000" dominant-baseline="hanging" transform="matrix(1,0,0,1,225,0)" style="display: block; fill: rgb(0, 0, 0);"><tspan dy="0" >Accepts evaluation evidence from</tspan><tspan dy="1.2em" x="0" >the precondition evaluator and</tspan><tspan dy="1.2em" x="0" >derives per-agent AgentReadiness</tspan><tspan dy="1.2em" x="0" >verdicts with</tspan><tspan dy="1.2em" x="0" >eligible/unsatisfied/warnings</tspan></text><g  id="v-1173" color="#000000" transform="matrix(1,0,0,1,222.5,268)" display="none" style="fill: rgb(0, 0, 0);"><g ></g><g ></g><g ></g><g ></g></g><image  id="v-1174"></image></g></g><!--z-index:37--><g   id="j_109"  transform="translate(800,2240)" style=""><g  id="v-1181" style="opacity: 1;"><rect  id="v-1182" rx="20" ry="20" stroke-width="2" pointer-events="visiblePainted" fill="#85bbf0" stroke="#78a8d8" stroke-dasharray="" width="450" height="300" style="fill: rgb(133, 187, 240); stroke: rgb(120, 168, 216);"></rect><text  id="v-1183" font-size="33.599999999999994px" xml:space="preserve" y="52.34" font-weight="bold" text-anchor="middle" pointer-events="visible" font-family="Tahoma, Verdana, Helvetica, Arial" fill="#000000" dominant-baseline="hanging" transform="matrix(1,0,0,1,225,0)" style="fill: rgb(0, 0, 0);"><tspan dy="0" >Recommendation</tspan><tspan dy="1.2em" x="0" >Classifier</tspan></text><text  id="v-1184" font-size="16.799999999999997px" xml:space="preserve" y="134.26" text-anchor="middle" font-family="Tahoma, Verdana, Helvetica, Arial" fill="#000000" dominant-baseline="hanging" transform="matrix(1,0,0,1,225,0)" style="display: block; fill: rgb(0, 0, 0);"><tspan dy="0" >[Component: Python]</tspan></text><text  id="v-1185" font-size="24px" xml:space="preserve" y="166.06" text-anchor="middle" font-family="Tahoma, Verdana, Helvetica, Arial" fill="#000000" dominant-baseline="hanging" transform="matrix(1,0,0,1,225,0)" style="display: block; fill: rgb(0, 0, 0);"><tspan dy="0" >Classifies agents by eligibility into</tspan><tspan dy="1.2em" x="0" >eligible and blocked groups from</tspan><tspan dy="1.2em" x="0" >readiness verdicts</tspan></text><g  id="v-1186" color="#000000" transform="matrix(1,0,0,1,222.5,268)" display="none" style="fill: rgb(0, 0, 0);"><g ></g><g ></g><g ></g><g ></g></g><image  id="v-1187"></image></g></g><!--z-index:38--><g   id="j_110"  transform="translate(1353,1758)" style=""><g  id="v-1194" style="opacity: 1;"><rect  id="v-1195" rx="20" ry="20" stroke-width="2" pointer-events="visiblePainted" fill="#85bbf0" stroke="#78a8d8" stroke-dasharray="" width="450" height="300" style="fill: rgb(133, 187, 240); stroke: rgb(120, 168, 216);"></rect><text  id="v-1196" font-size="33.599999999999994px" xml:space="preserve" y="86.9" font-weight="bold" text-anchor="middle" pointer-events="visible" font-family="Tahoma, Verdana, Helvetica, Arial" fill="#000000" dominant-baseline="hanging" transform="matrix(1,0,0,1,225,0)" style="fill: rgb(0, 0, 0);"><tspan dy="0" >Workstream Resolver</tspan></text><text  id="v-1197" font-size="16.799999999999997px" xml:space="preserve" y="128.5" text-anchor="middle" font-family="Tahoma, Verdana, Helvetica, Arial" fill="#000000" dominant-baseline="hanging" transform="matrix(1,0,0,1,225,0)" style="display: block; fill: rgb(0, 0, 0);"><tspan dy="0" >[Component: Python]</tspan></text><text  id="v-1198" font-size="24px" xml:space="preserve" y="160.3" text-anchor="middle" font-family="Tahoma, Verdana, Helvetica, Arial" fill="#000000" dominant-baseline="hanging" transform="matrix(1,0,0,1,225,0)" style="display: block; fill: rgb(0, 0, 0);"><tspan dy="0" >Resolves workstream identity from</tspan><tspan dy="1.2em" x="0" >session binding</tspan></text><g  id="v-1199" color="#000000" transform="matrix(1,0,0,1,222.5,268)" display="none" style="fill: rgb(0, 0, 0);"><g ></g><g ></g><g ></g><g ></g></g><image  id="v-1200"></image></g></g><!--z-index:39--><g   id="j_111"  transform="translate(1880,1758)" style=""><g  id="v-1207" style="opacity: 1;"><rect  id="v-1208" rx="20" ry="20" stroke-width="2" pointer-events="visiblePainted" fill="#85bbf0" stroke="#78a8d8" stroke-dasharray="" width="450" height="300" style="fill: rgb(133, 187, 240); stroke: rgb(120, 168, 216);"></rect><text  id="v-1209" font-size="33.599999999999994px" xml:space="preserve" y="58.10000000000001" font-weight="bold" text-anchor="middle" pointer-events="visible" font-family="Tahoma, Verdana, Helvetica, Arial" fill="#000000" dominant-baseline="hanging" transform="matrix(1,0,0,1,225,0)" style="fill: rgb(0, 0, 0);"><tspan dy="0" >Session Binding Manager</tspan></text><text  id="v-1210" font-size="16.799999999999997px" xml:space="preserve" y="99.7" text-anchor="middle" font-family="Tahoma, Verdana, Helvetica, Arial" fill="#000000" dominant-baseline="hanging" transform="matrix(1,0,0,1,225,0)" style="display: block; fill: rgb(0, 0, 0);"><tspan dy="0" >[Component: Python]</tspan></text><text  id="v-1211" font-size="24px" xml:space="preserve" y="131.5" text-anchor="middle" font-family="Tahoma, Verdana, Helvetica, Arial" fill="#000000" dominant-baseline="hanging" transform="matrix(1,0,0,1,225,0)" style="display: block; fill: rgb(0, 0, 0);"><tspan dy="0" >Creates and manages</tspan><tspan dy="1.2em" x="0" >session-to-workstream bindings;</tspan><tspan dy="1.2em" x="0" >records session_id, workstream_id,</tspan><tspan dy="1.2em" x="0" >and bound_at</tspan></text><g  id="v-1212" color="#000000" transform="matrix(1,0,0,1,222.5,268)" display="none" style="fill: rgb(0, 0, 0);"><g ></g><g ></g><g ></g><g ></g></g><image  id="v-1213"></image></g></g><!--z-index:40--><g   id="j_115"  style="opacity: 1;"><path fill="none" cursor="pointer" stroke="transparent" stroke-linecap="round" joint-selector="wrapper" id="v-1263" stroke-width="10" stroke-linejoin="round" d="M 1250 1021.96 L 2148 1213 C 2154.333333333333 1214.6 2160.6666666666665 1216.2666666666664 2167 1218 L 2680 1383.58"></path><path fill="none" pointer-events="none" joint-selector="line" id="v-1262" stroke="#444444" stroke-width="2" stroke-linejoin="round" stroke-dasharray="8 8" d="M 1250 1021.96 L 2148 1213 C 2154.333333333333 1214.6 2160.6666666666665 1216.2666666666664 2167 1218 L 2680 1383.58" marker-end="url(#v-21252848929)"></path><g id="v-1255" ><g id="v-1256"  label-idx="0" cursor="move" transform="matrix(1,0,0,1,2157.42578125,1215.430419921875)" style="cursor: default;"><rect joint-selector="rect" id="v-1259" fill="#ffffff" rx="3" ry="3" x="-96.57117462158203" y="-43.82221984863281" width="193.35003662109375" height="85.37777709960938" pointer-events="none"  style="display: block;"></rect><text joint-selector="text" id="v-1258" font-size="24px" xml:space="preserve" fill="#444444" text-anchor="middle" pointer-events="none" font-family="Tahoma, Verdana, Helvetica, Arial" font-weight="normal"  style="display: block;"><tspan dy="-0.8999999999999999em" >intent assess</tspan><tspan dy="1.2em" x="0" >validates proposal</tspan><tspan dy="1.2em" x="0" >artifacts</tspan></text></g><g id="v-1257"  label-idx="1" cursor="move" transform="matrix(1,0,0,1,2147.42578125,1256.23046875)" style="cursor: default;"><rect joint-selector="rect" id="v-1261" fill="#ffffff" rx="3" ry="3" x="0" y="0" width="0" height="0"  display="none"></rect><text joint-selector="text" id="v-1260" fill="#000000" font-size="14" text-anchor="middle" text-vertical-anchor="middle" pointer-events="none"></text></g></g></g><!--z-index:41--><g   id="j_116"  style="opacity: 1;"><path fill="none" cursor="pointer" stroke="transparent" stroke-linecap="round" joint-selector="wrapper" id="v-1275" stroke-width="10" stroke-linejoin="round" d="M 1025 543 L 1025 824"></path><path fill="none" pointer-events="none" joint-selector="line" id="v-1274" stroke="#444444" stroke-width="2" stroke-linejoin="round" stroke-dasharray="8 8" d="M 1025 543 L 1025 824" marker-end="url(#v-21252848929)"></path><g id="v-1267" ><g id="v-1268"  label-idx="0" cursor="move" transform="matrix(1,0,0,1,1025,633.6065063476562)" style="cursor: default;"><rect joint-selector="rect" id="v-1271" fill="#ffffff" rx="3" ry="3" x="-87.26128387451172" y="-43.82221984863281" width="176.1586456298828" height="85.37777709960938" pointer-events="none"  style="display: block;"></rect><text joint-selector="text" id="v-1270" font-size="24px" xml:space="preserve" fill="#444444" text-anchor="middle" pointer-events="none" font-family="Tahoma, Verdana, Helvetica, Arial" font-weight="normal"  style="display: block;"><tspan dy="-0.8999999999999999em" >Selects eligible</tspan><tspan dy="1.2em" x="0" >agents via intent</tspan><tspan dy="1.2em" x="0" >select</tspan></text></g><g id="v-1269"  label-idx="1" cursor="move" transform="matrix(1,0,0,1,1015,674.4065551757812)" style="cursor: default;"><rect joint-selector="rect" id="v-1273" fill="#ffffff" rx="3" ry="3" x="0" y="0" width="0" height="0"  display="none"></rect><text joint-selector="text" id="v-1272" fill="#000000" font-size="14" text-anchor="middle" text-vertical-anchor="middle" pointer-events="none"></text></g></g></g><!--z-index:42--><g   id="j_117"  style="opacity: 1;"><path fill="none" cursor="pointer" stroke="transparent" stroke-linecap="round" joint-selector="wrapper" id="v-1287" stroke-width="10" stroke-linejoin="round" d="M 1025 1124 L 1025 1306"></path><path fill="none" pointer-events="none" joint-selector="line" id="v-1286" stroke="#444444" stroke-width="2" stroke-linejoin="round" stroke-dasharray="8 8" d="M 1025 1124 L 1025 1306" marker-end="url(#v-21252848929)"></path><g id="v-1279" ><g id="v-1280"  label-idx="0" cursor="move" transform="matrix(1,0,0,1,1025,1215)" style="cursor: default;"><rect joint-selector="rect" id="v-1283" fill="#ffffff" rx="3" ry="3" x="-97.89495849609375" y="-29.42222023010254" width="196.34890747070312" height="56.57777786254883" pointer-events="none"  style="display: block;"></rect><text joint-selector="text" id="v-1282" font-size="24px" xml:space="preserve" fill="#444444" text-anchor="middle" pointer-events="none" font-family="Tahoma, Verdana, Helvetica, Arial" font-weight="normal"  style="display: block;"><tspan dy="-0.3em" >Calls evaluate_all</tspan><tspan dy="1.2em" x="0" >for agent selection</tspan></text></g><g id="v-1281"  label-idx="1" cursor="move" transform="matrix(1,0,0,1,1015,1241.4000244140625)" style="cursor: default;"><rect joint-selector="rect" id="v-1285" fill="#ffffff" rx="3" ry="3" x="0" y="0" width="0" height="0"  display="none"></rect><text joint-selector="text" id="v-1284" fill="#000000" font-size="14" text-anchor="middle" text-vertical-anchor="middle" pointer-events="none"></text></g></g></g><!--z-index:43--><g   id="j_118"  style="opacity: 1;"><path fill="none" cursor="pointer" stroke="transparent" stroke-linecap="round" joint-selector="wrapper" id="v-1299" stroke-width="10" stroke-linejoin="round" d="M 800 1082.63 L 534 1211 C 528 1213.9333333333332 525 1218.6 525 1225 L 525 1306"></path><path fill="none" pointer-events="none" joint-selector="line" id="v-1298" stroke="#444444" stroke-width="2" stroke-linejoin="round" stroke-dasharray="8 8" d="M 800 1082.63 L 534 1211 C 528 1213.9333333333332 525 1218.6 525 1225 L 525 1306" marker-end="url(#v-21252848929)"></path><g id="v-1291" ><g id="v-1292"  label-idx="0" cursor="move" transform="matrix(1,0,0,1,527.5963745117188,1216.1876220703125)" style="cursor: default;"><rect joint-selector="rect" id="v-1295" fill="#ffffff" rx="3" ry="3" x="-95.92013549804688" y="-29.42222023010254" width="192.37144470214844" height="56.57777786254883" pointer-events="none"  style="display: block;"></rect><text joint-selector="text" id="v-1294" font-size="24px" xml:space="preserve" fill="#444444" text-anchor="middle" pointer-events="none" font-family="Tahoma, Verdana, Helvetica, Arial" font-weight="normal"  style="display: block;"><tspan dy="-0.3em" >Calls load_agent_</tspan><tspan dy="1.2em" x="0" >definitions</tspan></text></g><g id="v-1293"  label-idx="1" cursor="move" transform="matrix(1,0,0,1,517.5963745117188,1242.587646484375)" style="cursor: default;"><rect joint-selector="rect" id="v-1297" fill="#ffffff" rx="3" ry="3" x="0" y="0" width="0" height="0"  display="none"></rect><text joint-selector="text" id="v-1296" fill="#000000" font-size="14" text-anchor="middle" text-vertical-anchor="middle" pointer-events="none"></text></g></g></g><!--z-index:44--><g   id="j_119"  style="opacity: 1;"><path fill="none" cursor="pointer" stroke="transparent" stroke-linecap="round" joint-selector="wrapper" id="v-1311" stroke-width="10" stroke-linejoin="round" d="M 1025 1606 L 1025 1758"></path><path fill="none" pointer-events="none" joint-selector="line" id="v-1310" stroke="#444444" stroke-width="2" stroke-linejoin="round" stroke-dasharray="8 8" d="M 1025 1606 L 1025 1758" marker-end="url(#v-21252848929)"></path><g id="v-1303" ><g id="v-1304"  label-idx="0" cursor="move" transform="matrix(1,0,0,1,1025,1682)" style="cursor: default;"><rect joint-selector="rect" id="v-1307" fill="#ffffff" rx="3" ry="3" x="-97.2439193725586" y="-29.42222023010254" width="195.01528930664062" height="56.57777786254883" pointer-events="none"  style="display: block;"></rect><text joint-selector="text" id="v-1306" font-size="24px" xml:space="preserve" fill="#444444" text-anchor="middle" pointer-events="none" font-family="Tahoma, Verdana, Helvetica, Arial" font-weight="normal"  style="display: block;"><tspan dy="-0.3em" >Passes evaluation</tspan><tspan dy="1.2em" x="0" >evidence</tspan></text></g><g id="v-1305"  label-idx="1" cursor="move" transform="matrix(1,0,0,1,1015,1708.4000244140625)" style="cursor: default;"><rect joint-selector="rect" id="v-1309" fill="#ffffff" rx="3" ry="3" x="0" y="0" width="0" height="0"  display="none"></rect><text joint-selector="text" id="v-1308" fill="#000000" font-size="14" text-anchor="middle" text-vertical-anchor="middle" pointer-events="none"></text></g></g></g><!--z-index:45--><g   id="j_120"  style="opacity: 1;"><path fill="none" cursor="pointer" stroke="transparent" stroke-linecap="round" joint-selector="wrapper" id="v-1323" stroke-width="10" stroke-linejoin="round" d="M 1025 2058 L 1025 2240"></path><path fill="none" pointer-events="none" joint-selector="line" id="v-1322" stroke="#444444" stroke-width="2" stroke-linejoin="round" stroke-dasharray="8 8" d="M 1025 2058 L 1025 2240" marker-end="url(#v-21252848929)"></path><g id="v-1315" ><g id="v-1316"  label-idx="0" cursor="move" transform="matrix(1,0,0,1,1025,2149)" style="cursor: default;"><rect joint-selector="rect" id="v-1319" fill="#ffffff" rx="3" ry="3" x="-94.55294799804688" y="-29.42222023010254" width="189.10589599609375" height="56.57777786254883" pointer-events="none"  style="display: block;"></rect><text joint-selector="text" id="v-1318" font-size="24px" xml:space="preserve" fill="#444444" text-anchor="middle" pointer-events="none" font-family="Tahoma, Verdana, Helvetica, Arial" font-weight="normal"  style="display: block;"><tspan dy="-0.3em" >Passes readiness</tspan><tspan dy="1.2em" x="0" >verdicts</tspan></text></g><g id="v-1317"  label-idx="1" cursor="move" transform="matrix(1,0,0,1,1015,2175.39990234375)" style="cursor: default;"><rect joint-selector="rect" id="v-1321" fill="#ffffff" rx="3" ry="3" x="0" y="0" width="0" height="0"  display="none"></rect><text joint-selector="text" id="v-1320" fill="#000000" font-size="14" text-anchor="middle" text-vertical-anchor="middle" pointer-events="none"></text></g></g></g><!--z-index:46--><g   id="j_121"  style="opacity: 1;"><path fill="none" cursor="pointer" stroke="transparent" stroke-linecap="round" joint-selector="wrapper" id="v-1335" stroke-width="10" stroke-linejoin="round" d="M 1479.99 2058 L 1425 2141 C 1421.6666666666665 2146.8666666666663 1423.3333333333333 2150.533333333333 1430 2152 L 2430 2346.24"></path><path fill="none" pointer-events="none" joint-selector="line" id="v-1334" stroke="#444444" stroke-width="2" stroke-linejoin="round" stroke-dasharray="8 8" d="M 1479.99 2058 L 1425 2141 C 1421.6666666666665 2146.8666666666663 1423.3333333333333 2150.533333333333 1430 2152 L 2430 2346.24" marker-end="url(#v-21252848929)"></path><g id="v-1327" ><g id="v-1328"  label-idx="0" cursor="move" transform="matrix(1,0,0,1,1424.41259765625,2149.19921875)" style="cursor: default;"><rect joint-selector="rect" id="v-1331" fill="#ffffff" rx="3" ry="3" x="-64.69184112548828" y="-43.82221984863281" width="126.60589599609375" height="85.37777709960938" pointer-events="none"  style="display: block;"></rect><text joint-selector="text" id="v-1330" font-size="24px" xml:space="preserve" fill="#444444" text-anchor="middle" pointer-events="none" font-family="Tahoma, Verdana, Helvetica, Arial" font-weight="normal"  style="display: block;"><tspan dy="-0.8999999999999999em" >Resolves</tspan><tspan dy="1.2em" x="0" >workstream</tspan><tspan dy="1.2em" x="0" >identity</tspan></text></g><g id="v-1329"  label-idx="1" cursor="move" transform="matrix(1,0,0,1,1414.41259765625,2189.9990234375)" style="cursor: default;"><rect joint-selector="rect" id="v-1333" fill="#ffffff" rx="3" ry="3" x="0" y="0" width="0" height="0"  display="none"></rect><text joint-selector="text" id="v-1332" fill="#000000" font-size="14" text-anchor="middle" text-vertical-anchor="middle" pointer-events="none"></text></g></g></g><!--z-index:47--><g   id="j_122"  style="opacity: 1;"><path fill="none" cursor="pointer" stroke="transparent" stroke-linecap="round" joint-selector="wrapper" id="v-1347" stroke-width="10" stroke-linejoin="round" d="M 1659.89 2058 L 1705 2141 C 1708.3333333333333 2146.8666666666663 1713.3333333333333 2150.2 1720 2151 L 2930 2352.6"></path><path fill="none" pointer-events="none" joint-selector="line" id="v-1346" stroke="#444444" stroke-width="2" stroke-linejoin="round" stroke-dasharray="8 8" d="M 1659.89 2058 L 1705 2141 C 1708.3333333333333 2146.8666666666663 1713.3333333333333 2150.2 1720 2151 L 2930 2352.6" marker-end="url(#v-21252848929)"></path><g id="v-1339" ><g id="v-1340"  label-idx="0" cursor="move" transform="matrix(1,0,0,1,1710.8436279296875,2147.620849609375)" style="cursor: default;"><rect joint-selector="rect" id="v-1343" fill="#ffffff" rx="3" ry="3" x="-82.57378387451172" y="-43.82221984863281" width="165.47799682617188" height="85.37777709960938" pointer-events="none"  style="display: block;"></rect><text joint-selector="text" id="v-1342" font-size="24px" xml:space="preserve" fill="#444444" text-anchor="middle" pointer-events="none" font-family="Tahoma, Verdana, Helvetica, Arial" font-weight="normal"  style="display: block;"><tspan dy="-0.8999999999999999em" >Reads session-</tspan><tspan dy="1.2em" x="0" >to-workstream</tspan><tspan dy="1.2em" x="0" >mapping</tspan></text></g><g id="v-1341"  label-idx="1" cursor="move" transform="matrix(1,0,0,1,1700.8436279296875,2188.4208984375)" style="cursor: default;"><rect joint-selector="rect" id="v-1345" fill="#ffffff" rx="3" ry="3" x="0" y="0" width="0" height="0"  display="none"></rect><text joint-selector="text" id="v-1344" fill="#000000" font-size="14" text-anchor="middle" text-vertical-anchor="middle" pointer-events="none"></text></g></g></g><!--z-index:48--><g   id="j_123"  style="opacity: 1;"><path fill="none" cursor="pointer" stroke="transparent" stroke-linecap="round" joint-selector="wrapper" id="v-1359" stroke-width="10" stroke-linejoin="round" d="M 2105 2058 L 2105 2140 C 2105 2146.533333333333 2108.333333333333 2150.533333333333 2115 2152 L 2930 2338.53"></path><path fill="none" pointer-events="none" joint-selector="line" id="v-1358" stroke="#444444" stroke-width="2" stroke-linejoin="round" stroke-dasharray="8 8" d="M 2105 2058 L 2105 2140 C 2105 2146.533333333333 2108.333333333333 2150.533333333333 2115 2152 L 2930 2338.53" marker-end="url(#v-21252848929)"></path><g id="v-1351" ><g id="v-1352"  label-idx="0" cursor="move" transform="matrix(1,0,0,1,2107.5986328125,2148.016357421875)" style="cursor: default;"><rect joint-selector="rect" id="v-1355" fill="#ffffff" rx="3" ry="3" x="-89.88714599609375" y="-43.82221984863281" width="180.11270141601562" height="85.37777709960938" pointer-events="none"  style="display: block;"></rect><text joint-selector="text" id="v-1354" font-size="24px" xml:space="preserve" fill="#444444" text-anchor="middle" pointer-events="none" font-family="Tahoma, Verdana, Helvetica, Arial" font-weight="normal"  style="display: block;"><tspan dy="-0.8999999999999999em" >Creates session-</tspan><tspan dy="1.2em" x="0" >to-workstream</tspan><tspan dy="1.2em" x="0" >bindings</tspan></text></g><g id="v-1353"  label-idx="1" cursor="move" transform="matrix(1,0,0,1,2097.5986328125,2188.81640625)" style="cursor: default;"><rect joint-selector="rect" id="v-1357" fill="#ffffff" rx="3" ry="3" x="0" y="0" width="0" height="0"  display="none"></rect><text joint-selector="text" id="v-1356" fill="#000000" font-size="14" text-anchor="middle" text-vertical-anchor="middle" pointer-events="none"></text></g></g></g><!--z-index:49--><!--z-index:50--><!--z-index:51--><!--z-index:52--><!--z-index:53--><!--z-index:54--><!--z-index:55--><!--z-index:56--><!--z-index:57--><!--z-index:58--><!--z-index:59--><!--z-index:60--><!--z-index:61--><!--z-index:62--><!--z-index:63--><!--z-index:64--><!--z-index:65--><!--z-index:66--><!--z-index:67--><!--z-index:68--><!--z-index:69--><!--z-index:70--><!--z-index:71--><!--z-index:72--><!--z-index:73--><!--z-index:74--><!--z-index:75--><!--z-index:76--><!--z-index:77--><!--z-index:78--><!--z-index:79--><!--z-index:80--><!--z-index:81--><!--z-index:82--><!--z-index:83--><!--z-index:84--><!--z-index:85--><!--z-index:86--></g><g  style="user-select: none;"></g><g ></g><g  display="none"></g></g></svg>